<?xml version="1.0" encoding="UTF-8"?>
<svg xmlns="http://www.w3.org/2000/svg" xmlns:xlink="http://www.w3.org/1999/xlink" viewBox="0 0 374.95 107.42">
  <defs>
    <style>
      .cls-1 {
        fill: url(#linear-gradient-132);
      }

      .cls-2 {
        fill: url(#linear-gradient-118);
      }

      .cls-3 {
        mix-blend-mode: lighten;
      }

      .cls-4 {
        fill: url(#linear-gradient-61);
      }

      .cls-5 {
        fill: url(#linear-gradient-136);
      }

      .cls-6 {
        fill: url(#linear-gradient-15);
      }

      .cls-7 {
        fill: url(#linear-gradient-13);
      }

      .cls-8 {
        fill: url(#linear-gradient-107);
      }

      .cls-9 {
        fill: url(#linear-gradient-28);
      }

      .cls-10 {
        fill: url(#radial-gradient-8);
      }

      .cls-10, .cls-11, .cls-12, .cls-13, .cls-14, .cls-15, .cls-16, .cls-17, .cls-18, .cls-19, .cls-20, .cls-21, .cls-22, .cls-23, .cls-24, .cls-25, .cls-26, .cls-27 {
        mix-blend-mode: color-dodge;
      }

      .cls-10, .cls-12, .cls-17, .cls-18, .cls-20 {
        opacity: .84;
      }

      .cls-28 {
        fill: url(#linear-gradient-65);
      }

      .cls-29 {
        fill: url(#linear-gradient-145);
      }

      .cls-30 {
        fill: url(#linear-gradient-69);
      }

      .cls-31 {
        fill: url(#linear-gradient-53);
      }

      .cls-32 {
        fill: url(#linear-gradient-42);
      }

      .cls-33 {
        fill: url(#linear-gradient-46);
      }

      .cls-34 {
        fill: url(#linear-gradient-142);
      }

      .cls-35 {
        fill: url(#linear-gradient-70);
      }

      .cls-36 {
        fill: url(#linear-gradient-60);
      }

      .cls-37 {
        fill: url(#linear-gradient-93);
      }

      .cls-38 {
        fill: url(#linear-gradient-95);
      }

      .cls-11 {
        fill: url(#radial-gradient-4);
      }

      .cls-11, .cls-16 {
        opacity: .7;
      }

      .cls-39 {
        fill: url(#linear-gradient-2);
      }

      .cls-40 {
        fill: url(#linear-gradient-100);
      }

      .cls-41 {
        fill: url(#linear-gradient-87);
      }

      .cls-42 {
        fill: url(#linear-gradient-64);
      }

      .cls-12 {
        fill: url(#radial-gradient-7);
      }

      .cls-43 {
        fill: url(#linear-gradient-56);
      }

      .cls-44 {
        fill: url(#linear-gradient-43);
      }

      .cls-45 {
        fill: url(#linear-gradient-25);
      }

      .cls-46 {
        fill: url(#linear-gradient-82);
      }

      .cls-47 {
        fill: url(#linear-gradient-138);
      }

      .cls-48 {
        fill: url(#linear-gradient-10);
      }

      .cls-49 {
        fill: url(#linear-gradient-12);
      }

      .cls-50 {
        fill: url(#linear-gradient-40);
      }

      .cls-13 {
        fill: url(#radial-gradient-17);
        opacity: .65;
      }

      .cls-51 {
        fill: url(#linear-gradient-27);
      }

      .cls-52 {
        fill: url(#linear-gradient-68);
      }

      .cls-53 {
        fill: url(#linear-gradient-37);
      }

      .cls-54 {
        fill: url(#linear-gradient-75);
      }

      .cls-55 {
        fill: url(#linear-gradient-55);
      }

      .cls-56 {
        fill: url(#linear-gradient-116);
      }

      .cls-14 {
        fill: url(#radial-gradient-14);
        opacity: .97;
      }

      .cls-57 {
        fill: url(#linear-gradient-39);
      }

      .cls-58 {
        fill: url(#linear-gradient-89);
      }

      .cls-59 {
        fill: url(#linear-gradient-52);
      }

      .cls-60 {
        fill: url(#linear-gradient-113);
      }

      .cls-61 {
        fill: url(#linear-gradient-122);
      }

      .cls-62 {
        fill: url(#linear-gradient-58);
      }

      .cls-15 {
        fill: url(#radial-gradient-3);
        opacity: .54;
      }

      .cls-63 {
        fill: url(#linear-gradient-47);
      }

      .cls-64 {
        fill: url(#linear-gradient-26);
      }

      .cls-65 {
        fill: url(#linear-gradient-74);
      }

      .cls-66 {
        fill: url(#linear-gradient-97);
      }

      .cls-67 {
        fill: url(#linear-gradient-72);
      }

      .cls-68 {
        fill: url(#linear-gradient-4);
      }

      .cls-69 {
        fill: url(#linear-gradient-35);
      }

      .cls-70 {
        fill: url(#linear-gradient-30);
      }

      .cls-71 {
        fill: url(#linear-gradient-125);
      }

      .cls-72 {
        fill: url(#linear-gradient-76);
      }

      .cls-73 {
        fill: url(#linear-gradient-143);
      }

      .cls-74 {
        fill: url(#linear-gradient-109);
      }

      .cls-75 {
        fill: url(#linear-gradient-73);
      }

      .cls-76 {
        fill: url(#linear-gradient-71);
      }

      .cls-16 {
        fill: url(#radial-gradient-6);
      }

      .cls-77 {
        fill: url(#linear-gradient-44);
      }

      .cls-78 {
        fill: url(#linear-gradient-144);
      }

      .cls-79 {
        fill: url(#linear-gradient-96);
      }

      .cls-80 {
        fill: url(#linear-gradient-49);
      }

      .cls-81 {
        fill: url(#linear-gradient-3);
      }

      .cls-82 {
        fill: url(#linear-gradient-34);
      }

      .cls-83 {
        fill: url(#linear-gradient-5);
      }

      .cls-84 {
        fill: url(#linear-gradient-38);
      }

      .cls-85 {
        fill: url(#linear-gradient-91);
      }

      .cls-86 {
        fill: url(#linear-gradient-22);
      }

      .cls-87 {
        fill: url(#linear-gradient-24);
      }

      .cls-88 {
        fill: url(#linear-gradient-133);
      }

      .cls-89 {
        fill: url(#linear-gradient-94);
      }

      .cls-90 {
        fill: url(#linear-gradient-54);
      }

      .cls-91 {
        isolation: isolate;
      }

      .cls-92 {
        fill: url(#linear-gradient-92);
      }

      .cls-93 {
        fill: url(#linear-gradient-90);
      }

      .cls-94 {
        fill: url(#linear-gradient-33);
      }

      .cls-95 {
        fill: url(#linear-gradient-79);
      }

      .cls-96 {
        fill: url(#linear-gradient-78);
      }

      .cls-97 {
        fill: url(#linear-gradient-51);
      }

      .cls-98 {
        fill: url(#linear-gradient-8);
      }

      .cls-99 {
        fill: url(#linear-gradient-66);
      }

      .cls-100 {
        fill: url(#linear-gradient-57);
      }

      .cls-101 {
        fill: url(#linear-gradient-77);
      }

      .cls-102 {
        fill: url(#linear-gradient-131);
      }

      .cls-103 {
        fill: url(#linear-gradient-129);
      }

      .cls-104 {
        fill: url(#linear-gradient-103);
      }

      .cls-17 {
        fill: url(#radial-gradient-10);
      }

      .cls-18 {
        fill: url(#radial-gradient-18);
      }

      .cls-105 {
        fill: url(#linear-gradient-135);
      }

      .cls-106 {
        fill: url(#linear-gradient-121);
      }

      .cls-107 {
        fill: url(#linear-gradient-110);
      }

      .cls-19 {
        fill: url(#radial-gradient-16);
        opacity: .58;
      }

      .cls-108 {
        fill: url(#linear-gradient-88);
      }

      .cls-109 {
        fill: url(#linear-gradient-124);
      }

      .cls-20 {
        fill: url(#radial-gradient-9);
      }

      .cls-21 {
        fill: url(#radial-gradient-13);
        opacity: .5;
      }

      .cls-110 {
        fill: url(#linear-gradient-128);
      }

      .cls-111 {
        fill: url(#linear-gradient-14);
      }

      .cls-112 {
        fill: url(#linear-gradient-62);
      }

      .cls-113 {
        fill: url(#linear-gradient-29);
      }

      .cls-114 {
        fill: url(#linear-gradient-20);
      }

      .cls-115 {
        fill: url(#linear-gradient-106);
      }

      .cls-116 {
        fill: url(#linear-gradient-67);
      }

      .cls-117 {
        fill: url(#linear-gradient-139);
      }

      .cls-118 {
        fill: url(#linear-gradient-17);
      }

      .cls-119 {
        fill: url(#linear-gradient-141);
      }

      .cls-120 {
        fill: url(#linear-gradient-50);
      }

      .cls-121 {
        fill: url(#linear-gradient-7);
      }

      .cls-122 {
        fill: url(#linear-gradient-134);
      }

      .cls-123 {
        fill: url(#linear-gradient-9);
      }

      .cls-124 {
        fill: url(#linear-gradient-104);
      }

      .cls-125 {
        fill: url(#linear-gradient-59);
      }

      .cls-126 {
        fill: url(#linear-gradient-11);
      }

      .cls-127 {
        fill: url(#linear-gradient-120);
      }

      .cls-128 {
        fill: url(#linear-gradient-108);
      }

      .cls-129 {
        fill: url(#linear-gradient-19);
      }

      .cls-130 {
        fill: url(#linear-gradient-101);
      }

      .cls-131 {
        fill: url(#linear-gradient-80);
      }

      .cls-132 {
        fill: url(#linear-gradient-6);
      }

      .cls-133 {
        fill: url(#linear-gradient-83);
      }

      .cls-134 {
        fill: url(#linear-gradient-112);
      }

      .cls-135 {
        fill: #010b23;
      }

      .cls-136 {
        fill: url(#linear-gradient-105);
      }

      .cls-137 {
        fill: url(#linear-gradient-137);
      }

      .cls-22 {
        fill: url(#radial-gradient-15);
        opacity: .79;
      }

      .cls-138 {
        fill: url(#linear-gradient-36);
      }

      .cls-139 {
        fill: url(#linear-gradient-21);
      }

      .cls-140 {
        fill: url(#linear-gradient-119);
      }

      .cls-141 {
        fill: url(#linear-gradient-45);
      }

      .cls-23 {
        fill: url(#radial-gradient-2);
        opacity: .8;
      }

      .cls-142 {
        fill: url(#linear-gradient-127);
      }

      .cls-143 {
        fill: url(#linear-gradient-85);
      }

      .cls-144 {
        fill: url(#linear-gradient-98);
      }

      .cls-145 {
        fill: url(#linear-gradient-81);
      }

      .cls-146 {
        fill: url(#linear-gradient-84);
      }

      .cls-147 {
        fill: url(#linear-gradient-114);
      }

      .cls-148 {
        fill: url(#linear-gradient-140);
      }

      .cls-149 {
        fill: url(#linear-gradient-117);
      }

      .cls-150 {
        fill: url(#linear-gradient-48);
      }

      .cls-151 {
        fill: url(#linear-gradient-102);
      }

      .cls-152 {
        fill: url(#linear-gradient-32);
      }

      .cls-153 {
        fill: url(#linear-gradient-86);
      }

      .cls-154 {
        fill: url(#linear-gradient-41);
      }

      .cls-155 {
        fill: url(#linear-gradient-130);
      }

      .cls-156 {
        fill: url(#linear-gradient-16);
      }

      .cls-157 {
        fill: url(#linear-gradient-111);
      }

      .cls-158 {
        fill: url(#linear-gradient);
      }

      .cls-159 {
        fill: url(#linear-gradient-23);
      }

      .cls-160 {
        fill: url(#linear-gradient-31);
      }

      .cls-161 {
        fill: url(#linear-gradient-63);
      }

      .cls-162 {
        fill: url(#linear-gradient-115);
      }

      .cls-163 {
        fill: url(#linear-gradient-126);
      }

      .cls-24 {
        fill: url(#radial-gradient-5);
        opacity: .67;
      }

      .cls-164 {
        fill: url(#linear-gradient-99);
      }

      .cls-25 {
        fill: url(#radial-gradient);
        opacity: .76;
      }

      .cls-165 {
        fill: url(#linear-gradient-18);
      }

      .cls-166 {
        fill: url(#linear-gradient-123);
      }

      .cls-26 {
        fill: url(#radial-gradient-11);
        opacity: .92;
      }

      .cls-27 {
        fill: url(#radial-gradient-12);
        opacity: .98;
      }
    </style>
    <linearGradient id="linear-gradient" x1="521.16" y1="18.29" x2="529.75" y2="18.29" gradientTransform="translate(568.36) rotate(-180) scale(1 -1)" gradientUnits="userSpaceOnUse">
      <stop offset="0" stop-color="#007cd2"/>
      <stop offset="1" stop-color="#51d8ff"/>
    </linearGradient>
    <linearGradient id="linear-gradient-2" x1="505.1" y1="41.24" x2="512.68" y2="41.24" xlink:href="#linear-gradient"/>
    <linearGradient id="linear-gradient-3" x1="497.55" y1="39.88" x2="500.65" y2="39.88" xlink:href="#linear-gradient"/>
    <linearGradient id="linear-gradient-4" x1="519.26" y1="6.37" x2="526.04" y2="6.37" xlink:href="#linear-gradient"/>
    <linearGradient id="linear-gradient-5" x1="524.79" y1="13.93" x2="529.75" y2="13.93" xlink:href="#linear-gradient"/>
    <linearGradient id="linear-gradient-6" x1="524.88" y1="6.27" x2="529.75" y2="6.27" xlink:href="#linear-gradient"/>
    <linearGradient id="linear-gradient-7" x1="525.74" y1="9.9" x2="529.75" y2="9.9" xlink:href="#linear-gradient"/>
    <linearGradient id="linear-gradient-8" x1="514.51" y1="8.09" x2="519.99" y2="8.09" xlink:href="#linear-gradient"/>
    <linearGradient id="linear-gradient-9" x1="519.26" y1="8.09" x2="526.04" y2="8.09" xlink:href="#linear-gradient"/>
    <linearGradient id="linear-gradient-10" x1="519.69" y1="15.7" x2="525.09" y2="15.7" xlink:href="#linear-gradient"/>
    <linearGradient id="linear-gradient-11" x1="519.69" y1="13.93" x2="526.04" y2="13.93" xlink:href="#linear-gradient"/>
    <linearGradient id="linear-gradient-12" x1="506.85" y1="11.77" x2="514.47" y2="11.77" xlink:href="#linear-gradient"/>
    <linearGradient id="linear-gradient-13" x1="510.71" y1="10.56" x2="514.81" y2="10.56" xlink:href="#linear-gradient"/>
    <linearGradient id="linear-gradient-14" x1="514.16" y1="10.56" x2="519.99" y2="10.56" xlink:href="#linear-gradient"/>
    <linearGradient id="linear-gradient-15" x1="514.17" y1="18.21" x2="521.46" y2="18.21" xlink:href="#linear-gradient"/>
    <linearGradient id="linear-gradient-16" x1="514.17" y1="15.7" x2="521.46" y2="15.7" xlink:href="#linear-gradient"/>
    <linearGradient id="linear-gradient-17" x1="503.63" y1="15.57" x2="510.67" y2="15.57" xlink:href="#linear-gradient"/>
    <linearGradient id="linear-gradient-18" x1="506.85" y1="15.57" x2="514.46" y2="15.57" xlink:href="#linear-gradient"/>
    <linearGradient id="linear-gradient-19" x1="510.37" y1="18.21" x2="518.35" y2="18.21" xlink:href="#linear-gradient"/>
    <linearGradient id="linear-gradient-20" x1="510.37" y1="21.65" x2="518.35" y2="21.65" xlink:href="#linear-gradient"/>
    <linearGradient id="linear-gradient-21" x1="498.82" y1="22.87" x2="507.64" y2="22.87" xlink:href="#linear-gradient"/>
    <linearGradient id="linear-gradient-22" x1="500.98" y1="19.98" x2="507.64" y2="19.98" xlink:href="#linear-gradient"/>
    <linearGradient id="linear-gradient-23" x1="503.63" y1="19.98" x2="510.66" y2="19.98" xlink:href="#linear-gradient"/>
    <linearGradient id="linear-gradient-24" x1="507.34" y1="21.66" x2="515.85" y2="21.66" xlink:href="#linear-gradient"/>
    <linearGradient id="linear-gradient-25" x1="507.34" y1="26.02" x2="515.85" y2="26.02" xlink:href="#linear-gradient"/>
    <linearGradient id="linear-gradient-26" x1="497.73" y1="28.74" x2="505.83" y2="28.74" xlink:href="#linear-gradient"/>
    <linearGradient id="linear-gradient-27" x1="498.82" y1="27.23" x2="507.64" y2="27.23" xlink:href="#linear-gradient"/>
    <linearGradient id="linear-gradient-28" x1="505.53" y1="27.23" x2="513.89" y2="27.23" xlink:href="#linear-gradient"/>
    <linearGradient id="linear-gradient-29" x1="505.53" y1="32.84" x2="512.85" y2="32.84" xlink:href="#linear-gradient"/>
    <linearGradient id="linear-gradient-30" x1="505.53" y1="29.75" x2="513.89" y2="29.75" xlink:href="#linear-gradient"/>
    <linearGradient id="linear-gradient-31" x1="497.64" y1="34.44" x2="506.52" y2="34.44" xlink:href="#linear-gradient"/>
    <linearGradient id="linear-gradient-32" x1="497.64" y1="39.71" x2="506.52" y2="39.71" xlink:href="#linear-gradient"/>
    <linearGradient id="linear-gradient-33" x1="497.73" y1="33.53" x2="506.52" y2="33.53" xlink:href="#linear-gradient"/>
    <linearGradient id="linear-gradient-34" x1="500.35" y1="39.74" x2="506.52" y2="39.74" xlink:href="#linear-gradient"/>
    <linearGradient id="linear-gradient-35" x1="505.1" y1="39.74" x2="512.65" y2="39.74" xlink:href="#linear-gradient"/>
    <linearGradient id="linear-gradient-36" x1="505.53" y1="33.53" x2="512.65" y2="33.53" xlink:href="#linear-gradient"/>
    <linearGradient id="linear-gradient-37" x1="506.22" y1="37.64" x2="512.65" y2="37.64" xlink:href="#linear-gradient"/>
    <linearGradient id="linear-gradient-38" x1="529.19" y1="59.3" x2="529.66" y2="59.3" xlink:href="#linear-gradient"/>
    <linearGradient id="linear-gradient-39" x1="523.38" y1="67.99" x2="526.13" y2="67.99" xlink:href="#linear-gradient"/>
    <linearGradient id="linear-gradient-40" x1="525.37" y1="77.39" x2="527.48" y2="77.39" xlink:href="#linear-gradient"/>
    <linearGradient id="linear-gradient-41" x1="527.52" y1="90.69" x2="529.84" y2="90.69" xlink:href="#linear-gradient"/>
    <linearGradient id="linear-gradient-42" x1="529.37" y1="99.73" x2="530.1" y2="99.73" xlink:href="#linear-gradient"/>
    <linearGradient id="linear-gradient-43" x1="529.37" y1="102.28" x2="530.1" y2="102.28" xlink:href="#linear-gradient"/>
    <linearGradient id="linear-gradient-44" x1="524.61" y1="104.86" x2="530.1" y2="104.86" xlink:href="#linear-gradient"/>
    <linearGradient id="linear-gradient-45" x1="506.65" y1="106.02" x2="515.33" y2="106.02" xlink:href="#linear-gradient"/>
    <linearGradient id="linear-gradient-46" x1="506.65" y1="106.11" x2="520.25" y2="106.11" xlink:href="#linear-gradient"/>
    <linearGradient id="linear-gradient-47" x1="506.65" y1="106.01" x2="524.92" y2="106.01" xlink:href="#linear-gradient"/>
    <linearGradient id="linear-gradient-48" x1="524.88" y1="50.07" x2="529.66" y2="50.07" xlink:href="#linear-gradient"/>
    <linearGradient id="linear-gradient-49" x1="491.34" y1="53.07" x2="497.45" y2="53.07" xlink:href="#linear-gradient"/>
    <linearGradient id="linear-gradient-50" x1="494.02" y1="49.96" x2="497.45" y2="49.96" xlink:href="#linear-gradient"/>
    <linearGradient id="linear-gradient-51" x1="497.12" y1="49.61" x2="500.49" y2="49.61" xlink:href="#linear-gradient"/>
    <linearGradient id="linear-gradient-52" x1="497.15" y1="49.57" x2="505.57" y2="49.57" xlink:href="#linear-gradient"/>
    <linearGradient id="linear-gradient-53" x1="497.15" y1="50.17" x2="508.07" y2="50.17" xlink:href="#linear-gradient"/>
    <linearGradient id="linear-gradient-54" x1="505.27" y1="50.17" x2="513.94" y2="50.17" xlink:href="#linear-gradient"/>
    <linearGradient id="linear-gradient-55" x1="507.78" y1="50.47" x2="521.37" y2="50.47" xlink:href="#linear-gradient"/>
    <linearGradient id="linear-gradient-56" x1="513.65" y1="50.46" x2="525.17" y2="50.46" xlink:href="#linear-gradient"/>
    <linearGradient id="linear-gradient-57" x1="521.07" y1="50.46" x2="529.66" y2="50.46" xlink:href="#linear-gradient"/>
    <linearGradient id="linear-gradient-58" x1="521.08" y1="56.68" x2="529.66" y2="56.68" xlink:href="#linear-gradient"/>
    <linearGradient id="linear-gradient-59" x1="524.27" y1="63.59" x2="526.41" y2="63.59" xlink:href="#linear-gradient"/>
    <linearGradient id="linear-gradient-60" x1="525.74" y1="63.04" x2="529.49" y2="63.04" xlink:href="#linear-gradient"/>
    <linearGradient id="linear-gradient-61" x1="525.74" y1="62.11" x2="529.49" y2="62.11" xlink:href="#linear-gradient"/>
    <linearGradient id="linear-gradient-62" x1="525.74" y1="56.68" x2="529.66" y2="56.68" xlink:href="#linear-gradient"/>
    <linearGradient id="linear-gradient-63" x1="507.78" y1="57.59" x2="521.37" y2="57.59" xlink:href="#linear-gradient"/>
    <linearGradient id="linear-gradient-64" x1="516.67" y1="57.85" x2="526.04" y2="57.85" xlink:href="#linear-gradient"/>
    <linearGradient id="linear-gradient-65" x1="516.67" y1="63.59" x2="525.89" y2="63.59" xlink:href="#linear-gradient"/>
    <linearGradient id="linear-gradient-66" x1="497.15" y1="56.85" x2="508.07" y2="56.85" xlink:href="#linear-gradient"/>
    <linearGradient id="linear-gradient-67" x1="505.88" y1="57.59" x2="516.97" y2="57.59" xlink:href="#linear-gradient"/>
    <linearGradient id="linear-gradient-68" x1="491.35" y1="59.32" x2="496.59" y2="59.32" xlink:href="#linear-gradient"/>
    <linearGradient id="linear-gradient-69" x1="491.28" y1="64.15" x2="496.59" y2="64.15" xlink:href="#linear-gradient"/>
    <linearGradient id="linear-gradient-70" x1="491.35" y1="56.85" x2="497.45" y2="56.85" xlink:href="#linear-gradient"/>
    <linearGradient id="linear-gradient-71" x1="496.29" y1="56.85" x2="506.17" y2="56.85" xlink:href="#linear-gradient"/>
    <linearGradient id="linear-gradient-72" x1="491.28" y1="69.11" x2="499.27" y2="69.11" xlink:href="#linear-gradient"/>
    <linearGradient id="linear-gradient-73" x1="491.28" y1="64.15" x2="499.27" y2="64.15" xlink:href="#linear-gradient"/>
    <linearGradient id="linear-gradient-74" x1="496.29" y1="63.93" x2="506.17" y2="63.93" xlink:href="#linear-gradient"/>
    <linearGradient id="linear-gradient-75" x1="498.97" y1="64.32" x2="510.58" y2="64.32" xlink:href="#linear-gradient"/>
    <linearGradient id="linear-gradient-76" x1="505.88" y1="64.32" x2="516.97" y2="64.32" xlink:href="#linear-gradient"/>
    <linearGradient id="linear-gradient-77" x1="510.28" y1="64.93" x2="519.04" y2="64.93" xlink:href="#linear-gradient"/>
    <linearGradient id="linear-gradient-78" x1="516.67" y1="64.93" x2="524.71" y2="64.93" xlink:href="#linear-gradient"/>
    <linearGradient id="linear-gradient-79" x1="518.74" y1="68.83" x2="524.71" y2="68.83" xlink:href="#linear-gradient"/>
    <linearGradient id="linear-gradient-80" x1="518.74" y1="72.22" x2="523.97" y2="72.22" xlink:href="#linear-gradient"/>
    <linearGradient id="linear-gradient-81" x1="520.04" y1="73.09" x2="524.49" y2="73.09" xlink:href="#linear-gradient"/>
    <linearGradient id="linear-gradient-82" x1="520.04" y1="74.61" x2="525.66" y2="74.61" xlink:href="#linear-gradient"/>
    <linearGradient id="linear-gradient-83" x1="520.04" y1="77.39" x2="526.73" y2="77.39" xlink:href="#linear-gradient"/>
    <linearGradient id="linear-gradient-84" x1="510.28" y1="70.97" x2="519.04" y2="70.97" xlink:href="#linear-gradient"/>
    <linearGradient id="linear-gradient-85" x1="510.37" y1="72.23" x2="520.34" y2="72.23" xlink:href="#linear-gradient"/>
    <linearGradient id="linear-gradient-86" x1="491.31" y1="73.95" x2="500.99" y2="73.95" xlink:href="#linear-gradient"/>
    <linearGradient id="linear-gradient-87" x1="491.31" y1="70.67" x2="500.99" y2="70.67" xlink:href="#linear-gradient"/>
    <linearGradient id="linear-gradient-88" x1="498.97" y1="70.67" x2="510.58" y2="70.67" xlink:href="#linear-gradient"/>
    <linearGradient id="linear-gradient-89" x1="500.69" y1="71.06" x2="510.66" y2="71.06" xlink:href="#linear-gradient"/>
    <linearGradient id="linear-gradient-90" x1="491.34" y1="79.31" x2="496.16" y2="79.31" xlink:href="#linear-gradient"/>
    <linearGradient id="linear-gradient-91" x1="491.39" y1="78.49" x2="500.99" y2="78.49" xlink:href="#linear-gradient"/>
    <linearGradient id="linear-gradient-92" x1="491.31" y1="85.01" x2="496.16" y2="85.01" xlink:href="#linear-gradient"/>
    <linearGradient id="linear-gradient-93" x1="495.85" y1="78.49" x2="506.95" y2="78.49" xlink:href="#linear-gradient"/>
    <linearGradient id="linear-gradient-94" x1="500.69" y1="78.05" x2="510.67" y2="78.05" xlink:href="#linear-gradient"/>
    <linearGradient id="linear-gradient-95" x1="506.65" y1="78.23" x2="518.44" y2="78.23" xlink:href="#linear-gradient"/>
    <linearGradient id="linear-gradient-96" x1="510.37" y1="78.23" x2="520.34" y2="78.23" xlink:href="#linear-gradient"/>
    <linearGradient id="linear-gradient-97" x1="518.14" y1="79" x2="526.73" y2="79" xlink:href="#linear-gradient"/>
    <linearGradient id="linear-gradient-98" x1="518.14" y1="84.96" x2="525.52" y2="84.96" xlink:href="#linear-gradient"/>
    <linearGradient id="linear-gradient-99" x1="518.14" y1="81.77" x2="526.73" y2="81.77" xlink:href="#linear-gradient"/>
    <linearGradient id="linear-gradient-100" x1="491.34" y1="94.51" x2="499.01" y2="94.51" xlink:href="#linear-gradient"/>
    <linearGradient id="linear-gradient-101" x1="491.31" y1="90.58" x2="499.01" y2="90.58" xlink:href="#linear-gradient"/>
    <linearGradient id="linear-gradient-102" x1="491.31" y1="86.09" x2="499.01" y2="86.09" xlink:href="#linear-gradient"/>
    <linearGradient id="linear-gradient-103" x1="495.86" y1="85.74" x2="506.95" y2="85.74" xlink:href="#linear-gradient"/>
    <linearGradient id="linear-gradient-104" x1="491.65" y1="100.31" x2="504.02" y2="100.31" xlink:href="#linear-gradient"/>
    <linearGradient id="linear-gradient-105" x1="491.65" y1="94.51" x2="504.02" y2="94.51" xlink:href="#linear-gradient"/>
    <linearGradient id="linear-gradient-106" x1="493.24" y1="101.41" x2="504.01" y2="101.41" xlink:href="#linear-gradient"/>
    <linearGradient id="linear-gradient-107" x1="495.68" y1="102.05" x2="504.02" y2="102.05" xlink:href="#linear-gradient"/>
    <linearGradient id="linear-gradient-108" x1="498.45" y1="102.13" x2="504.02" y2="102.13" xlink:href="#linear-gradient"/>
    <linearGradient id="linear-gradient-109" x1="502.94" y1="102.18" x2="506.95" y2="102.18" xlink:href="#linear-gradient"/>
    <linearGradient id="linear-gradient-110" x1="503.72" y1="102.18" x2="511.1" y2="102.18" xlink:href="#linear-gradient"/>
    <linearGradient id="linear-gradient-111" x1="503.72" y1="102.02" x2="513.69" y2="102.02" xlink:href="#linear-gradient"/>
    <linearGradient id="linear-gradient-112" x1="510.8" y1="102.15" x2="515.33" y2="102.15" xlink:href="#linear-gradient"/>
    <linearGradient id="linear-gradient-113" x1="513.39" y1="102.16" x2="520.25" y2="102.16" xlink:href="#linear-gradient"/>
    <linearGradient id="linear-gradient-114" x1="513.39" y1="102.16" x2="523.96" y2="102.16" xlink:href="#linear-gradient"/>
    <linearGradient id="linear-gradient-115" x1="519.95" y1="102.35" x2="524.91" y2="102.35" xlink:href="#linear-gradient"/>
    <linearGradient id="linear-gradient-116" x1="523.67" y1="102.35" x2="529.84" y2="102.35" xlink:href="#linear-gradient"/>
    <linearGradient id="linear-gradient-117" x1="523.67" y1="96.02" x2="529.84" y2="96.02" xlink:href="#linear-gradient"/>
    <linearGradient id="linear-gradient-118" x1="523.67" y1="101.07" x2="529.84" y2="101.07" xlink:href="#linear-gradient"/>
    <linearGradient id="linear-gradient-119" x1="513.39" y1="95.24" x2="523.96" y2="95.24" xlink:href="#linear-gradient"/>
    <linearGradient id="linear-gradient-120" x1="518.14" y1="86.91" x2="524.66" y2="86.91" xlink:href="#linear-gradient"/>
    <linearGradient id="linear-gradient-121" x1="523.06" y1="95.24" x2="529.84" y2="95.24" xlink:href="#linear-gradient"/>
    <linearGradient id="linear-gradient-122" x1="523.06" y1="89.93" x2="527.82" y2="89.93" xlink:href="#linear-gradient"/>
    <linearGradient id="linear-gradient-123" x1="523.06" y1="90.71" x2="529.84" y2="90.71" xlink:href="#linear-gradient"/>
    <linearGradient id="linear-gradient-124" x1="498.71" y1="93.47" x2="510.92" y2="93.47" xlink:href="#linear-gradient"/>
    <linearGradient id="linear-gradient-125" x1="498.7" y1="85.74" x2="510.92" y2="85.74" xlink:href="#linear-gradient"/>
    <linearGradient id="linear-gradient-126" x1="503.72" y1="93.51" x2="513.69" y2="93.51" xlink:href="#linear-gradient"/>
    <linearGradient id="linear-gradient-127" x1="506.65" y1="85.18" x2="518.44" y2="85.18" xlink:href="#linear-gradient"/>
    <linearGradient id="linear-gradient-128" x1="510.63" y1="93.51" x2="523.36" y2="93.51" xlink:href="#linear-gradient"/>
    <linearGradient id="linear-gradient-129" x1="510.63" y1="86.91" x2="523.36" y2="86.91" xlink:href="#linear-gradient"/>
    <linearGradient id="linear-gradient-130" x1="545.94" y1="2.05" x2="545.94" y2="43.18" xlink:href="#linear-gradient"/>
    <linearGradient id="linear-gradient-131" x1="490.95" y1="76.55" x2="568.58" y2="76.55" gradientTransform="translate(568.36) rotate(-180) scale(1 -1)" gradientUnits="userSpaceOnUse">
      <stop offset="0" stop-color="#51d8ff"/>
      <stop offset="1" stop-color="#007cd2"/>
    </linearGradient>
    <linearGradient id="linear-gradient-132" x1="549.05" y1="46.36" x2="549.05" y2="106.48" xlink:href="#linear-gradient"/>
    <linearGradient id="linear-gradient-133" x1="497.57" y1="22.57" x2="561.76" y2="22.57" xlink:href="#linear-gradient-131"/>
    <linearGradient id="linear-gradient-134" x1="490.95" y1="76.42" x2="568.58" y2="76.42" xlink:href="#linear-gradient-131"/>
    <linearGradient id="linear-gradient-135" x1="497.61" y1="3.83" x2="561.72" y2="3.83" xlink:href="#linear-gradient-131"/>
    <linearGradient id="linear-gradient-136" x1="499.2" y1="3.83" x2="530.17" y2="3.83" xlink:href="#linear-gradient"/>
    <linearGradient id="linear-gradient-137" x1="497.61" y1="15.93" x2="561.72" y2="15.93" xlink:href="#linear-gradient-131"/>
    <linearGradient id="linear-gradient-138" x1="499.2" y1="15.93" x2="530.17" y2="15.93" xlink:href="#linear-gradient"/>
    <linearGradient id="linear-gradient-139" x1="497.61" y1="9.88" x2="561.72" y2="9.88" xlink:href="#linear-gradient-131"/>
    <linearGradient id="linear-gradient-140" x1="545.12" y1="3.39" x2="545.12" y2="40.87" xlink:href="#linear-gradient-131"/>
    <linearGradient id="linear-gradient-141" x1="491" y1="63.86" x2="568.53" y2="63.86" xlink:href="#linear-gradient-131"/>
    <linearGradient id="linear-gradient-142" x1="493.01" y1="63.86" x2="530.17" y2="63.86" xlink:href="#linear-gradient"/>
    <linearGradient id="linear-gradient-143" x1="491" y1="97.04" x2="568.53" y2="97.04" xlink:href="#linear-gradient-131"/>
    <linearGradient id="linear-gradient-144" x1="491" y1="55.94" x2="568.53" y2="55.94" xlink:href="#linear-gradient-131"/>
    <linearGradient id="linear-gradient-145" x1="548.22" y1="48.14" x2="548.22" y2="104.62" xlink:href="#linear-gradient-131"/>
    <radialGradient id="radial-gradient" cx="-8803.93" cy="6616.89" fx="-8803.93" fy="6616.89" r="29.27" gradientTransform="translate(-837.09 -658.72) rotate(-180) scale(.1 -.1)" gradientUnits="userSpaceOnUse">
      <stop offset="0" stop-color="#cdfff1"/>
      <stop offset=".86" stop-color="#000"/>
    </radialGradient>
    <radialGradient id="radial-gradient-2" cx="-8951.4" cy="6774.12" fx="-8951.4" fy="6774.12" r="50.7" xlink:href="#radial-gradient"/>
    <radialGradient id="radial-gradient-3" cx="-8928.73" cy="6903.66" fx="-8928.73" fy="6903.66" r="42.34" xlink:href="#radial-gradient"/>
    <radialGradient id="radial-gradient-4" cx="-9075.33" cy="6958.97" fx="-9075.33" fy="6958.97" r="37.11" xlink:href="#radial-gradient"/>
    <radialGradient id="radial-gradient-5" cx="-9041.85" cy="6789.39" fx="-9041.85" fy="6789.39" r="76.31" xlink:href="#radial-gradient"/>
    <radialGradient id="radial-gradient-6" cx="-8800.62" cy="7050.51" fx="-8800.62" fy="7050.51" r="42.34" xlink:href="#radial-gradient"/>
    <radialGradient id="radial-gradient-7" cx="-8952.63" cy="7331.08" fx="-8952.63" fy="7331.08" r="26.66" xlink:href="#radial-gradient"/>
    <radialGradient id="radial-gradient-8" cx="-8886.01" cy="7201.71" fx="-8886.01" fy="7201.71" r="26.66" xlink:href="#radial-gradient"/>
    <radialGradient id="radial-gradient-9" cx="-9136.19" cy="7152.36" fx="-9136.19" fy="7152.36" r="26.66" xlink:href="#radial-gradient"/>
    <radialGradient id="radial-gradient-10" cx="-8946.06" cy="6674.04" fx="-8946.06" fy="6674.04" r="26.66" xlink:href="#radial-gradient"/>
    <radialGradient id="radial-gradient-11" cx="-9140.05" cy="7253.61" fx="-9140.05" fy="7253.61" r="14.11" xlink:href="#radial-gradient"/>
    <radialGradient id="radial-gradient-12" cx="-9010.91" cy="7569.5" fx="-9010.91" fy="7569.5" r="43.91" xlink:href="#radial-gradient"/>
    <radialGradient id="radial-gradient-13" cx="-8818.46" cy="7577.94" fx="-8818.46" fy="7577.94" r="71.09" xlink:href="#radial-gradient"/>
    <radialGradient id="radial-gradient-14" cx="-9139.53" cy="7463.99" fx="-9139.53" fy="7463.99" r="65.86" xlink:href="#radial-gradient"/>
    <radialGradient id="radial-gradient-15" cx="-8978.78" cy="7128.84" fx="-8978.78" fy="7128.84" r="75.27" xlink:href="#radial-gradient"/>
    <radialGradient id="radial-gradient-16" cx="-8782.52" cy="7350.47" fx="-8782.52" fy="7350.47" r="27.18" xlink:href="#radial-gradient"/>
    <radialGradient id="radial-gradient-17" cx="-8947.74" cy="7646.28" fx="-8947.74" fy="7646.28" r="14.63" xlink:href="#radial-gradient"/>
    <radialGradient id="radial-gradient-18" cx="-8873" cy="7406.34" fx="-8873" fy="7406.34" r="34.37" xlink:href="#radial-gradient"/>
  </defs>
  <g class="cls-91">
    <g id="Layer_1" data-name="Layer 1">
      <g>
        <g>
          <path class="cls-135" d="M121.22,62.85c-.33,1.7-.62,3.54-.88,5.52-4.62.94-8.85,1.41-12.69,1.41-3.42,0-6.73-.52-9.91-1.56-3.19-1.04-5.96-2.65-8.31-4.83s-4.07-4.75-5.15-7.7c-1.08-2.95-1.62-6.12-1.62-9.49,0-3.61.6-7.09,1.79-10.44,1.2-3.35,3.01-6.19,5.43-8.53,2.43-2.33,5.36-4.08,8.79-5.24,3.43-1.16,7.03-1.74,10.78-1.74,4.03,0,8.05.42,12.06,1.27.02,1.19.15,3,.39,5.45-2.6-.8-4.82-1.33-6.64-1.6-1.83-.27-3.56-.4-5.2-.4-2.79,0-5.46.43-8.02,1.28-2.55.86-4.82,2.22-6.79,4.1-1.97,1.88-3.48,4.18-4.52,6.91-1.04,2.73-1.56,5.57-1.56,8.53,0,2.74.42,5.34,1.25,7.8.83,2.46,2.11,4.54,3.83,6.24,1.72,1.7,3.77,3,6.13,3.9,2.37.9,5.03,1.35,7.98,1.35,3.73,0,8.02-.74,12.87-2.21Z"/>
          <path class="cls-135" d="M122.7,85.28c-.16-1.98-.36-3.65-.6-5.03,1.17.56,2.26.94,3.27,1.14,1.01.2,1.86.3,2.57.3.92,0,1.81-.17,2.67-.49.87-.33,1.57-.77,2.11-1.31.54-.54,1.11-1.29,1.71-2.24.6-.95,1.23-2.07,1.9-3.35.67-1.28,1.31-2.72,1.92-4.3l-7.5-21.34-5.49-15.26c1.71.05,2.84.07,3.41.07.66,0,1.72-.02,3.2-.07.38,1.64.69,2.89.95,3.76.26.87.82,2.63,1.69,5.3l5.32,16.13c.59,1.83,1.17,3.79,1.76,5.9l3.98-9.7,7.36-17.18c.21-.52.42-1.05.62-1.6.2-.55.51-1.42.93-2.62,1.49.05,2.53.07,3.11.07.49,0,1.57-.02,3.25-.07-.91,2.08-3.13,6.94-6.64,14.58l-13.03,28.98c-.92,1.94-1.75,3.42-2.5,4.43-.61.8-1.27,1.49-1.97,2.07-.56.49-1.2.91-1.9,1.27-.87.42-1.81.75-2.81.98-1.1.23-2.23.35-3.38.35-1.81,0-3.78-.26-5.91-.77Z"/>
          <path class="cls-135" d="M164.01,69l.32-3.94c.05-.7.12-2.03.21-3.97l.98-23.84.42-16.24c1.43.02,2.55.04,3.34.04s1.87-.01,3.13-.04c-.33,3-.62,7.31-.88,12.94,2.46-.54,4.48-.9,6.05-1.09,1.57-.19,3.12-.28,4.64-.28,2.95,0,5.55.38,7.8,1.12,2.25.75,4.11,1.99,5.57,3.73,1.46,1.73,2.5,3.64,3.11,5.73.61,2.09.91,4.3.91,6.64,0,2.67-.37,5.26-1.11,7.75s-1.85,4.71-3.34,6.64c-1.49,1.93-3.3,3.35-5.43,4.24-2.13.89-4.46,1.34-7,1.34-1.36,0-2.64-.15-3.83-.44-1.2-.29-2.27-.7-3.23-1.21-.96-.52-1.78-1.1-2.44-1.76-.67-.66-1.22-1.31-1.65-1.97-.43-.66-.92-1.56-1.46-2.71l-.11,7.31c-1.36-.05-2.32-.07-2.88-.07-.4,0-1.44.02-3.13.07ZM171.18,38.66c-.16,3.9-.28,6.47-.35,7.71s-.11,2.73-.11,4.47c0,3.68.42,6.51,1.26,8.48.84,1.97,2.11,3.46,3.79,4.47,1.68,1.01,3.59,1.51,5.72,1.51,2.46,0,4.57-.62,6.35-1.86,1.78-1.24,3.16-3.13,4.14-5.68.98-2.54,1.47-5.19,1.47-7.93,0-3.87-1.02-6.98-3.07-9.35-2.05-2.37-5.13-3.55-9.25-3.55-1.43,0-2.91.12-4.44.36-1.53.24-3.38.69-5.53,1.36Z"/>
          <path class="cls-135" d="M235.66,63.41c-.28,1.29-.56,2.93-.84,4.92-2.25.56-4.2.94-5.85,1.14-1.65.2-3.3.3-4.94.3-2.93,0-5.56-.35-7.89-1.05s-4.33-1.93-5.99-3.67c-1.66-1.75-2.86-3.74-3.59-5.99s-1.09-4.63-1.09-7.14c0-3.49.67-6.73,2-9.72s3.35-5.34,6.03-7.05c2.68-1.71,6.09-2.57,10.21-2.57,2.13,0,4.17.31,6.12.93,1.95.62,3.56,1.56,4.85,2.83s2.29,2.83,2.99,4.69,1.05,3.9,1.05,6.1c0,.84-.07,1.66-.21,2.46h-26.82c-.09,1.29-.14,2.27-.14,2.95,0,2.46.52,4.73,1.55,6.8s2.55,3.64,4.57,4.71c2.02,1.07,4.34,1.6,6.96,1.6,3.02,0,6.7-.75,11.04-2.25ZM211.96,46.68h20.95c-.02-1.48-.12-2.62-.28-3.45-.16-.82-.47-1.67-.91-2.55s-1.05-1.64-1.81-2.29c-.76-.64-1.68-1.14-2.74-1.48-1.07-.34-2.22-.51-3.46-.51-1.34,0-2.61.19-3.81.56-1.21.38-2.27.89-3.2,1.55-.93.66-1.71,1.42-2.36,2.3s-1.12,1.73-1.44,2.55c-.32.82-.63,1.92-.93,3.3Z"/>
          <path class="cls-135" d="M244.62,69c.84-13.52,1.26-24.32,1.26-32.38l-.04-3.23c1.2.02,2.18.04,2.95.04.89,0,1.89-.01,2.99-.04l-.28,5.84c.87-1.45,1.63-2.55,2.3-3.29s1.42-1.35,2.27-1.83c.84-.48,1.8-.86,2.87-1.12,1.07-.27,2.17-.4,3.32-.4.98,0,1.96.12,2.92.35.02,1.55.11,3.28.25,5.2-1.45-.4-2.75-.6-3.9-.6-1.38,0-2.62.23-3.73.69-1.1.46-2.09,1.15-2.97,2.07-.88.93-1.6,2.03-2.16,3.32-.47,1.03-.83,2.37-1.07,4.01-.25,1.64-.44,4.63-.58,8.96-.09,3.16-.14,6.52-.14,10.05v2.36c-1.27-.05-2.29-.07-3.06-.07-.7,0-1.77.02-3.2.07Z"/>
          <path class="cls-135" d="M269.97,69l.6-9.53.74-18.25.39-15.29c.02-2.23.04-3.87.04-4.92l3.27.04c.63,0,1.65-.01,3.06-.04-.3,3.77-.67,11.1-1.1,21.99-.43,10.89-.68,19.55-.75,26-1.45-.05-2.47-.07-3.06-.07-.66,0-1.71.02-3.17.07ZM277.21,49.12l7.17-7.66c2.51-2.67,4.88-5.36,7.1-8.08,1.62.02,2.79.04,3.51.04.91,0,2.17-.01,3.76-.04l-15.21,15.77c2.84,3.71,8.33,10.32,16.47,19.85-1.45-.05-2.62-.07-3.51-.07s-2.09.02-3.61.07l-5.17-6.86c-.49-.63-1.58-1.97-3.27-4.01l-5.45-6.65-1.79-2.36Z"/>
          <path class="cls-135" d="M333.57,63.41c-.28,1.29-.56,2.93-.84,4.92-2.25.56-4.2.94-5.85,1.14-1.65.2-3.3.3-4.94.3-2.93,0-5.56-.35-7.89-1.05s-4.33-1.93-5.99-3.67c-1.66-1.75-2.86-3.74-3.59-5.99s-1.09-4.63-1.09-7.14c0-3.49.67-6.73,2-9.72s3.35-5.34,6.03-7.05c2.68-1.71,6.09-2.57,10.21-2.57,2.13,0,4.17.31,6.12.93,1.95.62,3.56,1.56,4.85,2.83s2.29,2.83,2.99,4.69,1.05,3.9,1.05,6.1c0,.84-.07,1.66-.21,2.46h-26.82c-.09,1.29-.14,2.27-.14,2.95,0,2.46.52,4.73,1.55,6.8s2.55,3.64,4.57,4.71c2.02,1.07,4.34,1.6,6.96,1.6,3.02,0,6.7-.75,11.04-2.25ZM309.87,46.68h20.95c-.02-1.48-.12-2.62-.28-3.45-.16-.82-.47-1.67-.91-2.55s-1.05-1.64-1.81-2.29c-.76-.64-1.68-1.14-2.74-1.48-1.07-.34-2.22-.51-3.46-.51-1.34,0-2.61.19-3.81.56-1.21.38-2.27.89-3.2,1.55-.93.66-1.71,1.42-2.36,2.3s-1.12,1.73-1.44,2.55c-.32.82-.63,1.92-.93,3.3Z"/>
          <path class="cls-135" d="M336.8,85.28c-.16-1.98-.36-3.65-.6-5.03,1.17.56,2.26.94,3.27,1.14,1.01.2,1.87.3,2.57.3.92,0,1.81-.17,2.67-.49.87-.33,1.57-.77,2.11-1.31.54-.54,1.11-1.29,1.71-2.24.6-.95,1.23-2.07,1.9-3.35.67-1.28,1.31-2.72,1.92-4.3l-7.5-21.34-5.49-15.26c1.71.05,2.84.07,3.41.07.66,0,1.72-.02,3.2-.07.38,1.64.69,2.89.95,3.76.26.87.82,2.63,1.69,5.3l5.32,16.13c.59,1.83,1.17,3.79,1.76,5.9l3.98-9.7,7.36-17.18c.21-.52.42-1.05.62-1.6.2-.55.51-1.42.93-2.62,1.49.05,2.53.07,3.11.07.49,0,1.57-.02,3.25-.07-.91,2.08-3.13,6.94-6.64,14.58l-13.03,28.98c-.92,1.94-1.75,3.42-2.5,4.43-.61.8-1.27,1.49-1.97,2.07-.56.49-1.2.91-1.9,1.27-.87.42-1.81.75-2.81.98-1.1.23-2.23.35-3.38.35-1.81,0-3.78-.26-5.91-.77Z"/>
        </g>
        <g>
          <path class="cls-135" d="M154.55,89.01l.33-4.83.35-9.48c0-.38.01-.95.01-1.69.98.02,1.82.02,2.52.02.44,0,1.11,0,2.03-.02.91-.02,1.56-.02,1.94-.02,1.3,0,2.4.1,3.28.3.67.15,1.29.41,1.85.79s1.06.87,1.49,1.47.76,1.27.97,2c.25.88.38,1.79.38,2.74,0,1.3-.23,2.56-.69,3.76s-1.15,2.2-2.06,3-1.93,1.33-3.06,1.58-2.39.38-3.78.38l-3.27-.02c-.21,0-.98,0-2.3.02ZM156.81,87.44c.95.02,1.84.04,2.66.04.69,0,1.39-.03,2.1-.1.71-.07,1.35-.19,1.92-.37.57-.18,1.12-.5,1.67-.97s.99-.99,1.34-1.58.61-1.25.78-1.98c.17-.73.26-1.47.26-2.22,0-.84-.11-1.62-.33-2.34s-.59-1.37-1.12-1.95-1.15-.96-1.88-1.15-1.68-.29-2.87-.29c-1.46,0-2.8.01-4.01.04l-.53,12.88Z"/>
          <path class="cls-135" d="M177.91,76.87c.82,0,1.6.12,2.34.35s1.38.61,1.93,1.11.96,1.15,1.24,1.92.42,1.59.42,2.45c0,.93-.15,1.82-.45,2.67s-.72,1.57-1.27,2.17-1.21,1.03-1.99,1.31-1.63.42-2.53.42c-.84,0-1.62-.12-2.37-.38-.74-.25-1.39-.64-1.93-1.17s-.96-1.18-1.24-1.95-.42-1.58-.42-2.42c0-1.27.26-2.42.77-3.44s1.27-1.78,2.27-2.29c1-.5,2.07-.76,3.21-.76ZM177.86,78.36c-.8,0-1.53.2-2.2.6-.67.4-1.16,1-1.48,1.8s-.48,1.67-.48,2.62c0,.83.13,1.57.4,2.23s.7,1.19,1.31,1.6,1.34.61,2.2.61c.58,0,1.14-.1,1.66-.3.52-.2.98-.53,1.37-.99.39-.46.68-1.03.87-1.69s.28-1.37.28-2.1c0-.69-.09-1.33-.28-1.93s-.47-1.08-.86-1.45c-.39-.36-.82-.62-1.31-.77-.49-.15-.98-.22-1.48-.22Z"/>
          <path class="cls-135" d="M186.11,89.01l.13-1.7c.02-.36.05-.93.09-1.7l.28-7.14c0-.59.01-1.03.01-1.34.37,0,.7.01,1.01.01.33,0,.65,0,.97-.01l-.1,2.18c.26-.44.5-.79.72-1.04.21-.26.5-.5.85-.71s.75-.39,1.2-.51.92-.18,1.4-.18c.34,0,.67.04,1,.12s.63.19.91.33.52.3.71.48.36.38.48.59.24.52.37.91c.48-.9,1.07-1.53,1.79-1.89s1.51-.54,2.4-.54c.56,0,1.11.09,1.63.27s.95.44,1.26.77.52.69.63,1.05.16.73.16,1.1-.03.94-.08,1.69c-.05.75-.12,1.89-.19,3.43-.07,1.54-.11,2.81-.12,3.84-.42-.02-.74-.02-.97-.02-.25,0-.62,0-1.12.02.09-1.05.16-2.2.22-3.45l.15-2.91c.04-.7.06-1.31.06-1.82,0-.46-.05-.81-.14-1.07-.09-.26-.24-.49-.45-.69s-.46-.36-.77-.46-.65-.16-1.04-.16c-.31,0-.6.04-.87.11-.25.07-.49.18-.73.32-.26.15-.49.33-.69.55-.2.21-.38.45-.52.72-.15.27-.27.6-.36.97-.12.47-.2,1.05-.25,1.73-.05.73-.1,1.68-.13,2.87l-.09,3.28c-.45-.02-.79-.02-1.02-.02-.21,0-.57,0-1.07.02.08-.97.14-1.96.19-2.99l.14-2.84c.04-.88.06-1.62.06-2.24,0-.4-.04-.74-.12-1.01s-.22-.53-.44-.76-.47-.41-.78-.53-.64-.18-1.01-.18c-.39,0-.76.07-1.11.21s-.68.34-.97.6-.55.59-.75.98-.36.89-.47,1.52-.2,1.72-.27,3.29c-.07,1.56-.1,2.88-.1,3.95-.5-.02-.84-.02-1.03-.02-.2,0-.56,0-1.07.02Z"/>
          <path class="cls-135" d="M207.48,79.02c.07-.34.14-.85.22-1.52.94-.24,1.75-.41,2.44-.5s1.37-.13,2.02-.13c.7,0,1.36.06,1.97.19s1.12.34,1.53.63.68.62.81,1,.2.78.2,1.21c0,.54-.04,1.44-.12,2.71-.08,1.27-.14,2.44-.19,3.52s-.06,2.04-.06,2.88c-.42-.02-.77-.02-1.03-.02-.25,0-.61,0-1.07.02l.25-3.2.18-3.79c-.27.21-.48.36-.62.45s-.29.17-.46.24c-.17.07-.36.14-.57.21s-.61.18-1.21.35-1.02.29-1.27.38c-.54.17-.97.34-1.28.52s-.57.36-.79.56c-.21.2-.36.41-.45.61-.1.25-.15.51-.15.79,0,.42.12.79.38,1.1s.56.53.94.65.83.18,1.37.18c.33,0,.67-.02,1.03-.07s.84-.16,1.44-.35c-.11.3-.23.77-.38,1.39-.57.11-1.04.18-1.39.21s-.7.04-1.02.04c-1.07,0-1.91-.12-2.51-.38s-1.05-.63-1.35-1.14-.45-1.07-.45-1.67c0-.35.05-.68.16-.97s.25-.57.43-.81.44-.48.77-.73.68-.44,1.04-.6.79-.31,1.27-.46c.48-.15,1.26-.36,2.33-.62.34-.08.64-.16.88-.24s.46-.16.64-.24.35-.17.49-.28.27-.23.39-.39.2-.31.26-.46.08-.31.08-.47c0-.38-.12-.71-.38-.98s-.58-.46-.98-.57-.88-.16-1.42-.16c-.51,0-1.03.04-1.56.12-.54.08-1,.18-1.38.29s-.87.28-1.45.51Z"/>
          <path class="cls-135" d="M219.53,89.01l.2-2.95.23-5.04.1-3.88h1.08s1.06,0,1.06,0c-.09,1.22-.17,2.49-.24,3.83-.07,1.33-.13,2.79-.17,4.37-.04,1.58-.07,2.8-.07,3.68-.49-.02-.84-.02-1.06-.02-.2,0-.57,0-1.13.02ZM220.07,74.58c.02-.73.04-1.29.04-1.66.43.02.81.02,1.14.02.41,0,.79,0,1.12-.02-.02.24-.04.8-.07,1.66-.42,0-.79-.01-1.09-.01s-.68,0-1.14.01Z"/>
          <path class="cls-135" d="M224.81,89.01c.37-4.9.57-8.86.58-11.87h1.06c.26.01.6,0,1.02,0l-.16,2.34c.2-.33.35-.58.47-.76s.27-.36.47-.56.43-.38.69-.54.58-.31.94-.42.72-.2,1.1-.25.74-.08,1.11-.08c.67,0,1.32.08,1.95.25s1.14.43,1.54.8.67.79.81,1.25.21.96.21,1.49c0,.1,0,.3-.01.59s-.02.67-.05,1.14l-.23,4.91c-.02.47-.03,1.04-.04,1.72-.35-.02-.68-.02-1-.02-.38,0-.74,0-1.08.02.08-.95.14-1.86.18-2.73l.15-2.73c.05-.94.07-1.64.07-2.12,0-.69-.12-1.24-.35-1.65-.23-.41-.61-.73-1.13-.95s-1.09-.33-1.74-.33c-.91,0-1.69.21-2.33.64-.59.4-1.06.96-1.38,1.7-.23.52-.39,1.3-.48,2.32-.12,1.23-.2,3.18-.25,5.85-.44-.02-.77-.02-1.02-.02s-.61,0-1.1.02Z"/>
          <path class="cls-135" d="M244.95,88.59c-.03-.74-.08-1.39-.15-1.93.83.39,1.57.67,2.23.83s1.29.24,1.9.24,1.13-.1,1.63-.3.88-.48,1.14-.84.38-.78.38-1.25c0-.27-.04-.53-.13-.77s-.22-.48-.42-.73-.52-.58-1-1-1.14-.99-2.01-1.73l-.87-.74c-.33-.28-.62-.56-.89-.84s-.49-.54-.67-.8-.32-.48-.42-.69-.17-.44-.23-.69-.08-.51-.08-.78c0-.67.18-1.3.55-1.89s.92-1.05,1.66-1.41,1.71-.53,2.92-.53c.87,0,1.93.12,3.2.35.02.5.07,1.12.16,1.85-1.2-.42-2.28-.63-3.26-.63-.67,0-1.23.11-1.69.33-.45.22-.8.5-1.03.85-.23.35-.35.7-.35,1.07,0,.22.03.43.09.64s.16.4.28.59c.18.27.4.55.67.83s.63.62,1.1,1.01c.12.09.56.46,1.34,1.1s1.34,1.14,1.7,1.49.64.68.85.98.38.62.49.97.18.72.18,1.13c0,.62-.13,1.2-.4,1.73s-.66.96-1.16,1.29-1.06.57-1.68.71-1.26.21-1.93.21c-.54,0-1.1-.04-1.67-.12s-1.39-.27-2.46-.56Z"/>
          <path class="cls-135" d="M266.48,87.14c-.09.43-.19.98-.28,1.64-.75.19-1.4.31-1.95.38s-1.1.1-1.65.1c-.98,0-1.85-.12-2.63-.35s-1.44-.64-2-1.22-.95-1.25-1.2-2-.36-1.54-.36-2.38c0-1.16.22-2.24.67-3.24s1.12-1.78,2.01-2.35,2.03-.86,3.4-.86c.71,0,1.39.1,2.04.31s1.19.52,1.62.94.76.94,1,1.56.35,1.3.35,2.03c0,.28-.02.55-.07.82h-8.94c-.03.43-.05.76-.05.98,0,.82.17,1.58.52,2.27s.85,1.21,1.52,1.57,1.45.53,2.32.53c1.01,0,2.23-.25,3.68-.75ZM258.58,81.57h6.98c0-.49-.04-.88-.09-1.15s-.16-.56-.3-.85-.35-.55-.6-.76-.56-.38-.91-.49-.74-.17-1.15-.17c-.45,0-.87.06-1.27.19s-.76.3-1.07.52-.57.47-.79.77-.38.58-.48.85-.21.64-.31,1.1Z"/>
          <path class="cls-135" d="M269.47,89.01c.28-4.51.42-8.11.42-10.79v-1.08c.39,0,.72.01.97.01.3,0,.63,0,1-.01l-.09,1.95c.29-.48.54-.85.77-1.1s.47-.45.76-.61.6-.29.96-.38.72-.13,1.11-.13c.33,0,.65.04.97.12,0,.52.04,1.09.08,1.73-.48-.13-.92-.2-1.3-.2-.46,0-.88.08-1.24.23-.37.15-.7.38-.99.69s-.53.68-.72,1.11c-.16.34-.28.79-.36,1.34s-.15,1.54-.19,2.99c-.03,1.05-.05,2.17-.05,3.35v.79c-.42-.02-.76-.02-1.02-.02-.24,0-.59,0-1.07.02Z"/>
          <path class="cls-135" d="M281.06,89.01l-.4-1.18c-.13-.38-.45-1.25-.94-2.61l-2.94-8.07c.48,0,.85.01,1.12.01.3,0,.65,0,1.05-.01l.25.82c.07.23.19.61.36,1.12l2.76,8.17,3.72-8.95.44-1.16c.46,0,.83.01,1.1.01s.64,0,1.1-.01l-1.52,3.27-3.06,6.82-.75,1.78c-.48-.02-.86-.02-1.14-.02s-.67,0-1.17.02Z"/>
          <path class="cls-135" d="M289.76,89.01l.2-2.95.23-5.04.1-3.88h1.08s1.06,0,1.06,0c-.09,1.22-.17,2.49-.24,3.83-.07,1.33-.13,2.79-.17,4.37-.04,1.58-.07,2.8-.07,3.68-.49-.02-.84-.02-1.06-.02-.2,0-.57,0-1.13.02ZM290.3,74.58c.02-.73.04-1.29.04-1.66.43.02.81.02,1.14.02.41,0,.79,0,1.12-.02-.02.24-.04.8-.07,1.66-.42,0-.79-.01-1.09-.01s-.68,0-1.14.01Z"/>
          <path class="cls-135" d="M303.84,87.23c-.02.12-.06.36-.12.7s-.12.67-.17,1c-.57.13-1.12.22-1.65.27s-.99.07-1.39.07c-.84,0-1.62-.11-2.34-.34s-1.34-.6-1.87-1.12-.92-1.16-1.17-1.93-.38-1.58-.38-2.43c0-1.15.2-2.24.61-3.27s1.05-1.84,1.92-2.43,2.07-.88,3.57-.88c1.11,0,2.19.15,3.25.45.05.66.09,1.21.13,1.64-.74-.23-1.35-.39-1.82-.47s-.9-.12-1.3-.12c-.69,0-1.3.12-1.85.38s-1.01.61-1.39,1.07-.66,1.01-.83,1.64-.25,1.28-.25,1.93c0,.88.14,1.66.41,2.32s.75,1.18,1.44,1.54,1.45.54,2.3.54,1.79-.18,2.88-.55Z"/>
          <path class="cls-135" d="M316.16,87.14c-.09.43-.19.98-.28,1.64-.75.19-1.4.31-1.95.38s-1.1.1-1.65.1c-.98,0-1.85-.12-2.63-.35s-1.44-.64-2-1.22-.95-1.25-1.2-2-.36-1.54-.36-2.38c0-1.16.22-2.24.67-3.24s1.12-1.78,2.01-2.35,2.03-.86,3.4-.86c.71,0,1.39.1,2.04.31s1.19.52,1.62.94.76.94,1,1.56.35,1.3.35,2.03c0,.28-.02.55-.07.82h-8.94c-.03.43-.05.76-.05.98,0,.82.17,1.58.52,2.27s.85,1.21,1.52,1.57,1.45.53,2.32.53c1.01,0,2.23-.25,3.68-.75ZM308.26,81.57h6.98c0-.49-.04-.88-.09-1.15s-.16-.56-.3-.85-.35-.55-.6-.76-.56-.38-.91-.49-.74-.17-1.15-.17c-.45,0-.87.06-1.27.19s-.76.3-1.07.52-.57.47-.79.77-.38.58-.48.85-.21.64-.31,1.1Z"/>
          <path class="cls-135" d="M318.63,88.78l-.07-.86c0-.09-.03-.39-.09-.9,1.2.52,2.31.79,3.33.79.53,0,.98-.07,1.35-.21.37-.14.64-.35.83-.62s.28-.56.28-.86c0-.16-.03-.33-.08-.49-.05-.16-.13-.32-.23-.47-.1-.15-.25-.32-.45-.5-.2-.18-.61-.53-1.24-1.04s-1.11-.9-1.43-1.19-.6-.58-.83-.88-.4-.6-.51-.91-.16-.61-.16-.93c0-.5.16-.98.47-1.45s.77-.82,1.37-1.05,1.3-.35,2.1-.35c.9,0,1.89.11,2.96.32.03.61.07,1.17.12,1.68-.88-.36-1.74-.54-2.59-.54-.46,0-.89.06-1.28.18s-.68.3-.87.54-.28.51-.28.8c0,.19.03.37.09.54s.17.36.33.56.35.4.58.59.68.56,1.35,1.1,1.14.94,1.39,1.2.46.52.64.8.31.54.39.81.12.54.12.83c0,.55-.16,1.05-.49,1.52s-.81.83-1.45,1.09-1.36.39-2.16.39c-.34,0-.73-.02-1.18-.06s-.84-.09-1.15-.15-.71-.15-1.18-.26Z"/>
        </g>
      </g>
      <g>
        <g id="triangle36" class="cls-3">
          <path class="cls-158" d="M47.04,19.48s-.04,0-.06-.01l-3.61-1.46-4.65-.6c-.08-.01-.14-.09-.13-.17,0-.08.08-.14.17-.13l4.66.6s.02,0,.04,0l3.63,1.47c.08.03.11.12.08.19-.02.06-.08.09-.14.09Z"/>
        </g>
        <g id="triangle36-2" data-name="triangle36" class="cls-3">
          <path class="cls-39" d="M55.82,42.83s-.08-.02-.1-.04c-.03-.03-.05-.07-.04-.11l.03-2.88s.02-.09.07-.12c.04-.03.09-.03.14-.01l7.25,2.82c.07.03.1.1.09.17-.01.07-.07.12-.14.12l-7.28.06h0ZM56,40.01l-.03,2.51,6.35-.05-6.33-2.46Z"/>
        </g>
        <g id="triangle36-3" data-name="triangle36" class="cls-3">
          <path class="cls-81" d="M70.65,42.71h-2.79c-.05,0-.1-.03-.13-.07-.03-.04-.03-.1,0-.14l2.71-5.35c.03-.06.1-.09.17-.08.07.02.12.08.12.14l.09,5.35s-.02.08-.04.11c-.03.03-.07.04-.11.04ZM68.1,42.41h2.4l-.07-4.6-2.33,4.6Z"/>
        </g>
        <g id="triangle36-4" data-name="triangle36" class="cls-3">
          <path class="cls-68" d="M42.47,10.15s-.05,0-.07-.02c-.06-.03-.09-.09-.08-.15l.86-7.26s.03-.08.06-.1c.04-.02.08-.03.12-.02l5.61,1.35c.05.01.1.05.11.11.01.05,0,.11-.04.15l-6.48,5.9s-.06.04-.1.04ZM43.46,2.93l-.8,6.69,5.97-5.44-5.18-1.25Z"/>
        </g>
        <g id="triangle36-5" data-name="triangle36" class="cls-3">
          <path class="cls-83" d="M43.42,18.01s-.01,0-.02,0l-4.66-.6s-.09-.04-.11-.08c-.02-.04-.02-.09,0-.14l3.71-7.26c.03-.06.09-.09.16-.08.06.01.11.06.12.13l.95,7.86s-.01.09-.04.12c-.03.03-.07.04-.1.04ZM38.98,17.14l4.26.55-.87-7.18-3.39,6.63Z"/>
        </g>
        <g id="triangle36-6" data-name="triangle36" class="cls-3">
          <path class="cls-132" d="M42.47,10.15c-.06,0-.11-.03-.13-.08l-3.71-7.46s-.02-.1,0-.15c.03-.04.08-.07.13-.07l4.58.2s.08.02.11.05c.03.03.04.07.04.11l-.86,7.26c0,.07-.06.12-.12.13,0,0-.02,0-.03,0ZM39,2.71l3.38,6.78.78-6.6-4.16-.18Z"/>
        </g>
        <g id="triangle36-7" data-name="triangle36" class="cls-3">
          <path class="cls-121" d="M38.76,17.41s-.02,0-.03,0c-.07-.02-.12-.08-.12-.15V2.55c0-.07.05-.13.12-.15.07-.01.14.02.17.08l3.71,7.46s.02.09,0,.13l-3.71,7.26c-.03.05-.08.08-.13.08ZM38.9,3.18v13.46l3.4-6.64-3.4-6.82Z"/>
        </g>
        <g id="triangle36-8" data-name="triangle36" class="cls-3">
          <path class="cls-98" d="M48.51,12.22s-.04,0-.06-.01c-.06-.03-.1-.08-.09-.15l.43-7.98s.03-.09.07-.12c.04-.03.09-.03.14,0l4.75,2.19s.07.06.09.11c0,.05,0,.09-.04.13l-5.19,5.79s-.07.05-.11.05ZM49.08,4.33l-.4,7.33,4.77-5.32-4.37-2.01Z"/>
        </g>
        <g id="triangle36-9" data-name="triangle36" class="cls-3">
          <path class="cls-123" d="M48.51,12.22s-.03,0-.05,0l-6.05-2.07c-.05-.02-.09-.06-.1-.11-.01-.05,0-.1.04-.14l6.48-5.9s.11-.05.17-.02c.06.03.09.08.08.14l-.43,7.98s-.03.09-.07.12c-.02.02-.05.03-.08.03ZM42.75,9.94l5.62,1.93.4-7.42-6.02,5.49Z"/>
        </g>
        <g id="triangle36-10" data-name="triangle36" class="cls-3">
          <path class="cls-48" d="M47.04,19.48s-.04,0-.06-.01l-3.63-1.47s-.08-.06-.09-.1c0-.05,0-.1.03-.13l5.1-5.79c.04-.05.12-.07.18-.04.06.03.09.1.08.16l-1.47,7.26s-.04.08-.08.1c-.02.01-.05.02-.07.02ZM43.67,17.8l3.27,1.32,1.32-6.53-4.59,5.21Z"/>
        </g>
        <g id="triangle36-11" data-name="triangle36" class="cls-3">
          <path class="cls-126" d="M43.42,18.01s-.03,0-.04,0c-.06-.02-.1-.07-.1-.12l-.95-7.86c0-.05.01-.1.05-.13.04-.03.09-.04.14-.03l6.05,2.07s.08.05.09.1c.01.05,0,.1-.03.14l-5.1,5.79s-.07.05-.11.05ZM42.65,10.22l.88,7.29,4.73-5.37-5.61-1.92Z"/>
        </g>
        <g id="triangle36-12" data-name="triangle36" class="cls-3">
          <path class="cls-49" d="M54.04,14.99s-.08-.02-.11-.05c-.04-.05-.05-.12-.02-.17l3.46-6.13s.06-.07.1-.07c.04,0,.09,0,.12.04l3.86,3.37s.06.09.05.14c-.01.05-.05.09-.1.11l-7.31,2.76s-.04,0-.05,0ZM57.54,8.94l-3.17,5.61,6.7-2.53-3.53-3.08Z"/>
        </g>
        <g id="triangle36-13" data-name="triangle36" class="cls-3">
          <path class="cls-7" d="M54.04,14.99s-.02,0-.03,0c-.07-.02-.11-.07-.12-.14l-.34-8.55c0-.06.03-.11.07-.13.05-.03.11-.03.16,0l3.8,2.42c.07.04.09.13.05.2l-3.46,6.13s-.08.08-.13.08ZM53.86,6.57l.31,7.74,3.13-5.55-3.44-2.19Z"/>
        </g>
        <g id="triangle36-14" data-name="triangle36" class="cls-3">
          <path class="cls-111" d="M54.04,14.99h0s-.04,0-.07-.02l-5.53-2.76s-.07-.06-.08-.11c0-.05,0-.09.04-.13l5.18-5.79s.11-.06.16-.04c.06.02.1.07.1.13l.34,8.52s0,.02,0,.04c0,.08-.07.15-.15.15ZM48.76,12.03l5.13,2.56-.32-7.93-4.81,5.37Z"/>
        </g>
        <g id="triangle36-15" data-name="triangle36" class="cls-3">
          <path class="cls-6" d="M50.15,21.72s-.06,0-.09-.03l-3.11-2.24s-.06-.08-.06-.12c0-.05.03-.09.07-.12l6.99-4.49c.06-.04.13-.03.19.02.05.05.06.12.03.18l-3.89,6.74s-.06.06-.1.07c-.01,0-.02,0-.03,0ZM47.31,19.34l2.8,2.02,3.5-6.06-6.3,4.04Z"/>
        </g>
        <g id="triangle36-16" data-name="triangle36" class="cls-3">
          <path class="cls-156" d="M47.04,19.48s-.06,0-.08-.03c-.05-.03-.07-.09-.06-.15l1.47-7.25s.04-.08.08-.11c.04-.02.09-.02.13,0l5.53,2.76s.08.07.08.13c0,.05-.02.1-.07.13l-7,4.49s-.05.02-.08.02ZM48.62,12.3l-1.36,6.72,6.48-4.16-5.12-2.56Z"/>
        </g>
        <g id="triangle36-17" data-name="triangle36" class="cls-3">
          <path class="cls-118" d="M57.84,19.22s-.08-.02-.1-.04c-.05-.05-.06-.11-.03-.17l3.52-6.99s.07-.08.12-.08c.05,0,.1.01.13.05l3.22,3.63s.04.08.04.13c0,.04-.04.08-.08.1l-6.74,3.37s-.05.02-.07.02ZM61.39,12.34l-3.21,6.4,6.16-3.08-2.95-3.32Z"/>
        </g>
        <g id="triangle36-18" data-name="triangle36" class="cls-3">
          <path class="cls-165" d="M57.84,19.22s-.08-.02-.11-.05l-3.8-4.23s-.04-.09-.03-.13c.01-.05.05-.09.09-.1l7.31-2.76c.06-.02.12,0,.16.04.04.05.05.11.02.17l-3.51,7s-.07.07-.11.08c0,0-.01,0-.02,0ZM54.3,14.9l3.51,3.91,3.25-6.46-6.75,2.55Z"/>
        </g>
        <g id="triangle36-19" data-name="triangle36" class="cls-3">
          <path class="cls-129" d="M50.15,21.72s-.09-.02-.12-.05c-.04-.05-.04-.12-.01-.17l3.89-6.74s.07-.07.11-.07c.05,0,.09.01.13.05l3.8,4.23s.05.09.03.14c-.01.05-.05.09-.1.1l-7.69,2.5s-.03,0-.05,0ZM54.07,15.09l-3.59,6.22,7.1-2.31-3.51-3.91Z"/>
        </g>
        <g id="triangle36-20" data-name="triangle36" class="cls-3">
          <path class="cls-114" d="M52.66,24.37h0s-.08-.02-.11-.05l-2.5-2.65s-.05-.09-.04-.14c.01-.05.05-.09.1-.11l7.69-2.51c.07-.02.14,0,.17.06.04.06.03.14-.02.18l-5.18,5.15s-.07.04-.11.04ZM50.42,21.64l2.24,2.37,4.63-4.6-6.87,2.24Z"/>
        </g>
        <g id="triangle36-21" data-name="triangle36" class="cls-3">
          <path class="cls-139" d="M69.39,25.96s-.02,0-.03,0l-8.53-1.55c-.06-.01-.1-.06-.12-.12-.01-.06.01-.12.06-.15l6.36-4.32s.09-.03.13-.02c.04.01.08.05.09.09l2.15,5.85s.02.05.02.08c0,.08-.06.15-.15.15h0ZM61.25,24.17l7.91,1.44-2-5.45-5.9,4.01Z"/>
        </g>
        <g id="triangle36-22" data-name="triangle36" class="cls-3">
          <path class="cls-86" d="M60.86,24.4s-.07-.01-.09-.03c-.05-.04-.07-.11-.04-.17l3.72-8.55c.02-.05.07-.09.12-.09.05,0,.11.02.14.07l2.65,4.23c.04.07.02.16-.04.2l-6.36,4.32s-.05.03-.08.03ZM64.6,16.02l-3.4,7.82,5.82-3.95-2.42-3.87Z"/>
        </g>
        <g id="triangle36-23" data-name="triangle36" class="cls-3">
          <path class="cls-159" d="M60.86,24.4c-.05,0-.1-.03-.13-.07l-3.02-5.18s-.03-.08-.01-.12c.01-.04.04-.07.08-.09l6.74-3.37c.06-.03.12-.02.17.03.05.04.06.11.04.17l-3.71,8.55c-.02.05-.07.09-.13.09,0,0,0,0,0,0ZM58.05,19.13l2.8,4.79,3.43-7.9-6.23,3.11Z"/>
        </g>
        <g id="triangle36-24" data-name="triangle36" class="cls-3">
          <path class="cls-87" d="M60.87,24.4h0l-8.21-.03c-.06,0-.12-.04-.14-.09-.02-.06,0-.12.03-.16l5.18-5.15s.08-.05.12-.04c.04,0,.08.03.11.07l3.01,5.16s.04.06.04.1c0,.08-.07.15-.15.15ZM53.02,24.08l7.59.03-2.8-4.79-4.79,4.76Z"/>
        </g>
        <g id="triangle36-25" data-name="triangle36" class="cls-3">
          <path class="cls-45" d="M54.62,27.97s-.03,0-.04,0c-.04-.01-.07-.04-.09-.07l-1.96-3.6s-.02-.1,0-.15c.03-.05.07-.08.13-.07l8.21.03c.07,0,.12.05.14.11.02.07-.01.13-.07.17l-6.25,3.57s-.05.02-.07.02ZM52.91,24.37l1.77,3.24,5.63-3.22-7.4-.02Z"/>
        </g>
        <g id="triangle36-26" data-name="triangle36" class="cls-3">
          <path class="cls-64" d="M70.48,31.83s-.02,0-.03,0l-7.8-1.47c-.06-.01-.11-.06-.12-.12-.01-.06.01-.12.07-.15l6.71-4.4s.09-.03.14-.01c.05.02.08.06.09.11l1.08,5.84s.01.04.01.06c0,.08-.07.15-.15.15h0ZM63.07,30.13l7.23,1.36-1.01-5.44-6.21,4.08Z"/>
        </g>
        <g id="triangle36-27" data-name="triangle36" class="cls-3">
          <path class="cls-51" d="M62.68,30.36s-.04,0-.05,0c-.04-.02-.08-.05-.09-.1l-1.81-5.96c-.02-.05,0-.1.03-.14.03-.04.09-.06.14-.05l8.52,1.55c.06.01.11.06.12.12.01.06-.01.12-.07.15l-6.71,4.4s-.05.02-.08.02ZM61.08,24.44l1.68,5.53,6.23-4.09-7.92-1.44Z"/>
        </g>
        <g id="triangle36-28" data-name="triangle36" class="cls-3">
          <path class="cls-9" d="M62.68,30.36s-.03,0-.04,0l-8.06-2.39c-.06-.02-.1-.07-.11-.13,0-.06.02-.12.07-.15l6.25-3.57s.09-.03.13,0c.04.02.07.05.09.09l1.81,5.93s.02.04.02.07c0,.08-.07.15-.15.15h0ZM54.99,27.78l7.46,2.21-1.68-5.52-5.78,3.3Z"/>
        </g>
        <g id="triangle36-29" data-name="triangle36" class="cls-3">
          <path class="cls-113" d="M55.86,35.63s-.04,0-.06-.01c-.05-.02-.08-.07-.09-.13l-.2-3.8c0-.07.05-.14.12-.15l7.02-1.47c.07-.01.14.02.17.08.03.06.01.14-.04.18l-6.82,5.27s-.06.03-.09.03ZM55.81,31.8l.18,3.39,6.08-4.7-6.26,1.31Z"/>
        </g>
        <g id="triangle36-30" data-name="triangle36" class="cls-3">
          <path class="cls-70" d="M55.65,31.83c-.07,0-.13-.04-.14-.11l-1.04-3.86c-.01-.05,0-.11.04-.15.04-.04.09-.05.15-.04l8.06,2.39c.07.02.11.08.11.15,0,.07-.05.13-.12.14l-7.02,1.47s-.02,0-.03,0ZM54.83,28.04l.93,3.46,6.31-1.32-7.24-2.14Z"/>
        </g>
        <g id="triangle36-31" data-name="triangle36" class="cls-3">
          <path class="cls-160" d="M70.57,37.36h0l-8.58-.35c-.07,0-.12-.05-.14-.11-.01-.06.01-.13.07-.16l8.49-5.18s.1-.03.15,0c.05.03.08.08.08.13l.09,5.5s0,.02,0,.03c0,.08-.07.15-.15.15h0ZM62.48,36.73l7.93.32-.08-5.11-7.85,4.79Z"/>
        </g>
        <g id="triangle36-32" data-name="triangle36" class="cls-3">
          <path class="cls-152" d="M67.86,42.71s-.08-.01-.1-.04l-5.87-5.7s-.06-.11-.03-.17c.02-.06.08-.09.14-.09l8.58.34c.05,0,.1.03.12.07.03.04.03.1,0,.14l-2.71,5.35s-.06.07-.11.08c0,0-.02,0-.03,0ZM62.37,37.03l5.45,5.29,2.51-4.97-7.96-.32Z"/>
        </g>
        <g id="triangle36-33" data-name="triangle36" class="cls-3">
          <path class="cls-94" d="M61.99,37.01s-.05,0-.08-.02c-.05-.03-.07-.09-.07-.14l.69-6.65s.03-.08.06-.1c.03-.02.07-.03.12-.03l7.8,1.47c.06.01.11.06.12.12.01.06-.02.12-.07.15l-8.49,5.18s-.05.02-.08.02ZM62.81,30.39l-.64,6.19,7.9-4.82-7.26-1.37Z"/>
        </g>
        <g id="triangle36-34" data-name="triangle36" class="cls-3">
          <path class="cls-82" d="M63.11,42.77c-.07,0-.13-.05-.15-.12l-1.12-5.76c-.01-.06.02-.13.08-.16.06-.03.13-.02.17.02l5.87,5.7s.06.11.03.16c-.02.06-.08.09-.14.09l-4.75.06h0ZM62.22,37.3l1.01,5.17,4.26-.05-5.27-5.12Z"/>
        </g>
        <g id="triangle36-35" data-name="triangle36" class="cls-3">
          <path class="cls-69" d="M63.11,42.77s-.04,0-.05,0l-7.25-2.82c-.06-.02-.09-.07-.1-.13,0-.06.03-.12.09-.14l6.13-2.94s.09-.02.13,0c.04.02.07.06.08.1l1.12,5.76c.01.05,0,.11-.05.14-.03.02-.06.03-.1.03ZM56.23,39.78l6.68,2.6-1.03-5.3-5.65,2.7Z"/>
        </g>
        <g id="triangle36-36" data-name="triangle36" class="cls-3">
          <path class="cls-138" d="M61.99,37.01s-.02,0-.03,0l-6.13-1.38c-.06-.01-.1-.06-.11-.11-.01-.06.01-.12.06-.15l6.82-5.27s.11-.04.16-.01c.05.03.08.09.08.15l-.69,6.65s-.03.08-.06.11c-.03.02-.06.03-.09.03ZM56.2,35.4l5.66,1.27.64-6.14-6.3,4.86Z"/>
        </g>
        <g id="triangle36-37" data-name="triangle36" class="cls-3">
          <path class="cls-53" d="M55.86,39.95s-.06,0-.08-.02c-.04-.03-.07-.07-.07-.13v-4.32s.02-.09.06-.12c.04-.03.08-.04.13-.03l6.13,1.38c.06.01.11.07.12.13,0,.06-.03.12-.08.15l-6.13,2.94s-.04.01-.06.01ZM56,35.67v3.89l5.53-2.65-5.53-1.25Z"/>
        </g>
        <g id="triangle36-38" data-name="triangle36" class="cls-3">
          <path class="cls-84" d="M39.01,65.31c-.08,0-.15-.07-.15-.15l-.17-11.72c0-.08.06-.15.15-.15h0c.08,0,.15.06.15.14l.17,5.61v6.11c0,.08-.07.15-.15.15h0Z"/>
        </g>
        <g id="triangle36-39" data-name="triangle36" class="cls-3">
          <path class="cls-57" d="M44.83,70.12c-.05,0-.1-.02-.13-.07l-2.44-3.94c-.04-.07-.02-.15.04-.2.06-.04.15-.04.2.02l1.41,1.53s.02.03.03.04l1.02,2.39s.03.05.03.08c0,.08-.07.15-.15.15h0ZM43.33,67.26l.59.95-.25-.58-.34-.37Z"/>
        </g>
        <g id="triangle36-40" data-name="triangle36" class="cls-3">
          <path class="cls-50" d="M41.78,79.93h0c-.07,0-.13-.05-.14-.12l-.75-3.51c-.01-.06.01-.12.06-.15l1.81-1.27c.05-.04.12-.04.17,0,.05.03.08.1.06.16l-1.06,4.78c-.02.07-.08.12-.15.12ZM41.19,76.33l.59,2.75.83-3.74-1.42.99Z"/>
        </g>
        <g id="triangle36-41" data-name="triangle36" class="cls-3">
          <path class="cls-154" d="M38.67,93.58s-.02,0-.03,0c-.07-.01-.12-.08-.12-.15l.17-5.47c0-.08.07-.14.15-.14h0l1.85.03s.09.02.12.06c.03.04.03.09.02.14l-2.02,5.44c-.02.06-.08.1-.14.1ZM38.99,88.11l-.14,4.41,1.63-4.39-1.49-.02Z"/>
        </g>
        <g id="triangle36-42" data-name="triangle36" class="cls-3">
          <path class="cls-32" d="M38.41,106.19h0c-.08,0-.14-.07-.14-.15l.26-12.61c0-.08.07-.14.15-.14h0c.08,0,.15.06.15.14l.17,5.1-.43,7.53c0,.08-.07.14-.15.14Z"/>
        </g>
        <g id="triangle36-43" data-name="triangle36" class="cls-3">
          <path class="cls-44" d="M38.41,106.19h-.01c-.08,0-.14-.08-.14-.16l.43-7.51c0-.08.07-.15.16-.14.08,0,.14.07.14.15l-.17,5.1-.26,2.43c0,.08-.07.13-.15.13Z"/>
        </g>
        <g id="triangle36-44" data-name="triangle36" class="cls-3">
          <path class="cls-77" d="M43.59,106.24h0l-5.18-.06s-.08-.02-.11-.05c-.03-.03-.04-.07-.04-.12l.26-2.42c0-.05.04-.09.08-.12.04-.02.1-.02.14,0l4.91,2.47c.06.02.1.07.1.14,0,.08-.07.15-.15.15h0ZM38.57,105.89l4.37.05-4.15-2.09-.22,2.04Z"/>
        </g>
        <g id="triangle36-45" data-name="triangle36" class="cls-3">
          <path class="cls-141" d="M61.56,106.33h0l-8.38-.14c-.08,0-.15-.07-.15-.15,0-.08.06-.15.14-.15l4.23-.17h.02l4.14.32c.08,0,.14.07.14.15s-.07.15-.15.15Z"/>
        </g>
        <g id="triangle36-46" data-name="triangle36" class="cls-3">
          <path class="cls-33" d="M61.56,106.33h0l-13.3-.11c-.08,0-.15-.07-.15-.15s.07-.15.15-.15l4.92-.03,8.38.14h0c.08,0,.15.07.15.15s-.07.15-.15.15Z"/>
        </g>
        <g id="triangle36-47" data-name="triangle36" class="cls-3">
          <path class="cls-63" d="M48.25,106.22h0l-4.66-.11c-.08,0-.15-.07-.15-.15,0-.08.07-.15.15-.15h0l17.96.08c.08,0,.15.07.15.15s-.07.15-.15.15l-13.3.03h0Z"/>
        </g>
        <g id="triangle36-48" data-name="triangle36" class="cls-3">
          <path class="cls-150" d="M38.84,53.59s-.03,0-.04,0c-.06-.02-.11-.08-.11-.14v-6.74c0-.08.07-.15.15-.15h4.49c.06,0,.11.03.13.08.02.05.02.11,0,.15l-4.49,6.74s-.08.07-.12.07ZM38.99,46.85v6.1l4.06-6.1h-4.06Z"/>
        </g>
        <g id="triangle36-49" data-name="triangle36" class="cls-3">
          <path class="cls-80" d="M76.86,56.69h0s-.06,0-.09-.03l-5.81-4.05s-.06-.07-.06-.11c0-.05.02-.09.05-.12l3.14-2.88s.08-.04.12-.04c.04,0,.08.03.11.07l1.78,2.72s.02.03.02.05l.89,4.18s.01.04.01.06c0,.08-.07.15-.15.15ZM71.29,52.48l5.34,3.72-.81-3.81-1.66-2.55-2.87,2.64Z"/>
        </g>
        <g id="triangle36-50" data-name="triangle36" class="cls-3">
          <path class="cls-120" d="M71.05,52.64s-.04,0-.06-.01c-.05-.02-.09-.08-.09-.14l.03-5.06c0-.06.03-.11.08-.13.05-.03.11-.02.16.01l3.11,2.18s.06.07.06.11c0,.05-.01.09-.05.12l-3.14,2.88s-.06.04-.1.04ZM71.23,47.71l-.03,4.44,2.75-2.53-2.72-1.91Z"/>
        </g>
        <g id="triangle36-51" data-name="triangle36" class="cls-3">
          <path class="cls-97" d="M71.05,52.64c-.05,0-.1-.03-.13-.08l-3.04-5.76c-.03-.05-.02-.11.01-.16.04-.05.09-.07.15-.05l3.07.7c.07.02.11.08.11.15l-.03,5.06c0,.07-.05.13-.12.14-.01,0-.02,0-.04,0ZM68.3,46.95l2.61,4.95.02-4.35-2.64-.6Z"/>
        </g>
        <g id="triangle36-52" data-name="triangle36" class="cls-3">
          <path class="cls-59" d="M71.05,52.64s-.06,0-.09-.03l-8.12-5.84c-.05-.04-.08-.11-.06-.17.02-.06.07-.11.14-.1l5.08.08c.05,0,.1.03.13.08l3.03,5.74s.03.06.03.09c0,.08-.07.15-.15.15h0ZM63.41,46.8l7.22,5.2-2.7-5.12-4.52-.07Z"/>
        </g>
        <g id="triangle36-53" data-name="triangle36" class="cls-3">
          <path class="cls-31" d="M60.43,53.85s-.09-.02-.12-.06c-.03-.04-.04-.1-.02-.14l2.5-7.05s.05-.08.09-.09c.05-.01.09,0,.13.02l8.12,5.84s.07.1.06.16c-.02.06-.07.1-.13.11l-10.62,1.21s-.01,0-.02,0ZM63.01,46.88l-2.36,6.64,10-1.14-7.65-5.5Z"/>
        </g>
        <g id="triangle36-54" data-name="triangle36" class="cls-3">
          <path class="cls-90" d="M60.43,53.85s-.08-.02-.11-.05l-5.87-6.98s-.05-.11-.02-.16c.02-.05.08-.09.13-.09l8.37-.07c.05,0,.09.02.12.06.03.04.04.09.02.14l-2.51,7.05c-.02.05-.06.09-.11.1-.01,0-.02,0-.03,0ZM54.88,46.87l5.5,6.54,2.34-6.61-7.84.07Z"/>
        </g>
        <g id="triangle36-55" data-name="triangle36" class="cls-3">
          <path class="cls-55" d="M47.13,54.37c-.06,0-.11-.03-.14-.09-.02-.06-.01-.12.03-.17l7.43-7.5s.07-.04.11-.04c.04,0,.08.02.11.05l5.87,6.98s.04.1.02.16c-.02.05-.07.09-.13.09l-13.3.52h0ZM54.55,46.94l-7.05,7.12,12.62-.49-5.57-6.62Z"/>
        </g>
        <g id="triangle36-56" data-name="triangle36" class="cls-3">
          <path class="cls-43" d="M47.13,54.37s-.02,0-.02,0c-.05,0-.09-.04-.11-.08l-3.8-7.51s-.02-.1,0-.15c.03-.04.07-.07.13-.07h0l11.23.02c.06,0,.11.04.14.09.02.06.01.12-.03.16l-7.43,7.5s-.07.04-.11.04ZM43.57,46.85l3.6,7.11,7.04-7.1h-10.63Z"/>
        </g>
        <g id="triangle36-57" data-name="triangle36" class="cls-3">
          <path class="cls-100" d="M47.13,54.37s-.01,0-.01,0l-8.29-.78c-.05,0-.1-.04-.12-.08-.02-.05-.02-.1.01-.15l4.49-6.74s.08-.07.13-.07c.05,0,.1.03.12.08l3.79,7.49s.03.06.03.09c0,.08-.07.15-.15.15h0ZM39.1,53.32l7.77.73-3.56-7.05-4.21,6.32Z"/>
        </g>
        <g id="triangle36-58" data-name="triangle36" class="cls-3">
          <path class="cls-62" d="M42.47,60.07h-.01s-.09-.03-.12-.08l-3.63-6.48s-.03-.11,0-.15c.03-.05.08-.07.14-.07l8.29.78c.05,0,.1.04.12.09.02.05.01.11-.02.15l-4.66,5.7s-.07.05-.12.05ZM39.11,53.62l3.38,6.04,4.35-5.31-7.73-.72Z"/>
        </g>
        <g id="triangle36-59" data-name="triangle36" class="cls-3">
          <path class="cls-125" d="M43.93,67.55s-.06,0-.08-.02l-1.84-1.24s-.07-.08-.07-.14l.52-6.39c0-.07.07-.13.14-.14.07,0,.14.05.15.12l1.32,7.63c0,.06-.02.12-.07.15-.02.02-.05.02-.08.02ZM42.25,66.09l1.48.99-1.06-6.13-.42,5.13Z"/>
        </g>
        <g id="triangle36-60" data-name="triangle36" class="cls-3">
          <path class="cls-36" d="M42.09,66.32s-.03,0-.05,0l-3.08-1.01s-.08-.05-.1-.09c-.01-.04,0-.09.02-.13l3.45-5.24c.04-.06.11-.08.17-.06.06.02.11.08.1.15l-.37,6.25s-.03.09-.07.12c-.02.02-.05.03-.08.03ZM39.24,65.08l2.71.89.33-5.5-3.04,4.61Z"/>
        </g>
        <g id="triangle36-61" data-name="triangle36" class="cls-3">
          <path class="cls-4" d="M39.01,65.31s-.03,0-.04,0c-.06-.02-.11-.08-.11-.14v-6.1s.02-.09.06-.12c.04-.03.08-.04.13-.03l3.45.86s.09.05.1.09c.02.04.01.09-.02.14l-3.45,5.24s-.08.07-.12.07ZM39.16,59.25v5.42l3.06-4.65-3.06-.77Z"/>
        </g>
        <g id="triangle36-62" data-name="triangle36" class="cls-3">
          <path class="cls-112" d="M42.47,60.07s-.02,0-.04,0l-3.46-.86c-.06-.02-.11-.07-.11-.14l-.17-5.61c0-.07.04-.13.11-.15.07-.02.14.01.17.07l3.63,6.48c.03.05.02.12-.01.16-.03.04-.07.06-.12.06ZM39.16,58.94l3.01.75-3.16-5.64.15,4.89Z"/>
        </g>
        <g id="triangle36-63" data-name="triangle36" class="cls-3">
          <path class="cls-161" d="M51.54,61.62s-.02,0-.02,0c-.04,0-.08-.03-.1-.07l-4.41-7.25s-.03-.1,0-.15c.03-.05.07-.08.13-.08l13.3-.52c.07,0,.12.04.15.09.02.06,0,.13-.04.17l-8.89,7.77s-.06.04-.1.04ZM47.39,54.36l4.18,6.89,8.44-7.38-12.62.49Z"/>
        </g>
        <g id="triangle36-64" data-name="triangle36" class="cls-3">
          <path class="cls-42" d="M51.54,61.62s-.02,0-.02,0l-9.07-1.55c-.05,0-.1-.05-.11-.09-.02-.05-.01-.1.02-.15l4.66-5.7s.08-.06.12-.05c.05,0,.09.03.12.07l4.39,7.23s.04.06.04.1c0,.08-.07.15-.15.15h0ZM42.75,59.82l8.49,1.45-4.12-6.79-4.37,5.34Z"/>
        </g>
        <g id="triangle36-65" data-name="triangle36" class="cls-3">
          <path class="cls-28" d="M43.93,67.55s-.04,0-.05,0c-.05-.02-.09-.06-.09-.11l-1.32-7.63s0-.1.04-.13c.04-.03.09-.05.13-.04l8.92,1.7c.06.01.1.06.12.11.01.06,0,.12-.05.15l-7.6,5.93s-.06.03-.09.03ZM42.8,59.96l1.24,7.17,7.15-5.57-8.39-1.6Z"/>
        </g>
        <g id="triangle36-66" data-name="triangle36" class="cls-3">
          <path class="cls-99" d="M62.33,61.36s-.03,0-.04,0c-.05-.01-.09-.06-.1-.11l-1.9-7.51s0-.09.02-.12c.02-.04.06-.06.1-.06l10.62-1.21c.06,0,.12.03.15.08.03.06.02.13-.03.17l-8.72,8.72s-.07.04-.1.04ZM60.62,53.83l1.79,7.09,8.23-8.23-10.03,1.14Z"/>
        </g>
        <g id="triangle36-67" data-name="triangle36" class="cls-3">
          <path class="cls-116" d="M51.54,61.62c-.06,0-.12-.04-.14-.1-.02-.06,0-.12.04-.17l8.9-7.77s.09-.05.14-.03c.05.02.09.06.1.11l1.9,7.51s0,.09-.03.13c-.03.04-.07.06-.11.06l-10.8.26h0ZM60.35,53.97l-8.4,7.34,10.2-.25-1.79-7.1Z"/>
        </g>
        <g id="triangle36-68" data-name="triangle36" class="cls-3">
          <path class="cls-52" d="M76.84,62.26s-.02,0-.03,0l-4.93-.89c-.06,0-.1-.05-.12-.1-.02-.06,0-.11.04-.15l4.94-4.68s.11-.05.16-.03c.06.02.09.08.09.14l-.02,5.57s-.02.08-.05.11c-.03.02-.06.03-.09.03ZM72.23,61.12l4.46.81.02-5.04-4.48,4.23Z"/>
        </g>
        <g id="triangle36-69" data-name="triangle36" class="cls-3">
          <path class="cls-30" d="M76.93,67.24s-.08-.02-.11-.05l-5.01-5.87s-.05-.12-.02-.17c.03-.06.09-.08.16-.07l4.93.89c.07.01.12.07.12.14l.08,4.98c0,.06-.04.12-.1.14-.02,0-.04,0-.05,0ZM72.3,61.44l4.47,5.24-.08-4.44-4.39-.8Z"/>
        </g>
        <g id="triangle36-70" data-name="triangle36" class="cls-3">
          <path class="cls-35" d="M71.92,61.36s-.03,0-.05,0c-.05-.02-.09-.07-.1-.13l-.87-8.72c0-.06.02-.11.07-.14.05-.03.11-.03.16,0l5.81,4.05s.06.07.06.11c0,.05-.01.09-.05.12l-4.94,4.68s-.07.04-.1.04ZM71.23,52.8l.8,8.1,4.59-4.34-5.39-3.76Z"/>
        </g>
        <g id="triangle36-71" data-name="triangle36" class="cls-3">
          <path class="cls-76" d="M71.92,61.36h-9.59c-.06,0-.12-.04-.14-.09-.02-.06-.01-.12.03-.16l8.72-8.72s.1-.05.16-.04c.05.02.09.07.1.13l.86,8.69s0,.03,0,.04c0,.08-.07.15-.15.15ZM62.69,61.07h9.06l-.82-8.25-8.25,8.25Z"/>
        </g>
        <g id="triangle36-72" data-name="triangle36" class="cls-3">
          <path class="cls-67" d="M76.9,71.73s-.06,0-.08-.02l-7.66-4.92c-.06-.04-.08-.11-.06-.17.02-.07.08-.11.15-.1l7.69.43c.08,0,.14.07.14.15l-.03,4.49c0,.05-.03.1-.08.13-.02.01-.05.02-.07.02ZM69.8,66.84l6.95,4.47.03-4.08-6.98-.39Z"/>
        </g>
        <g id="triangle36-73" data-name="triangle36" class="cls-3">
          <path class="cls-75" d="M76.93,67.24h0l-7.69-.43s-.09-.03-.12-.07c-.02-.04-.03-.09,0-.14l2.68-5.44s.06-.08.11-.08c.05,0,.1.01.13.05l5,5.85s.05.07.05.12c0,.08-.07.15-.15.15h0ZM69.47,66.52l7.12.4-4.64-5.43-2.48,5.03Z"/>
        </g>
        <g id="triangle36-74" data-name="triangle36" class="cls-3">
          <path class="cls-65" d="M69.24,66.8s-.07-.01-.09-.03l-6.91-5.44s-.07-.11-.05-.17c.02-.06.08-.1.14-.1h9.58c.05,0,.1.03.13.07s.03.1,0,.14l-2.68,5.44s-.06.07-.1.08c-.01,0-.02,0-.03,0ZM62.76,61.36l6.43,5.06,2.49-5.06h-8.92Z"/>
        </g>
        <g id="triangle36-75" data-name="triangle36" class="cls-3">
          <path class="cls-54" d="M57.93,67.58c-.05,0-.1-.03-.13-.08-.03-.05-.02-.11,0-.16l4.4-6.22s.06-.06.1-.06c.04,0,.08,0,.11.03l6.91,5.44s.07.1.05.16c-.02.06-.07.1-.13.11l-11.31.78s0,0-.01,0ZM62.36,61.43l-4.13,5.83,10.62-.73-6.48-5.1Z"/>
        </g>
        <g id="triangle36-76" data-name="triangle36" class="cls-3">
          <path class="cls-72" d="M57.93,67.58s-.07-.01-.1-.04l-6.39-5.96s-.06-.11-.04-.16c.02-.06.08-.09.14-.1l10.79-.26c.06,0,.11.03.14.08.03.05.02.11,0,.16l-4.41,6.22s-.06.06-.11.06c0,0,0,0-.02,0ZM51.91,61.61l6,5.59,4.13-5.84-10.13.24Z"/>
        </g>
        <g id="triangle36-77" data-name="triangle36" class="cls-3">
          <path class="cls-101" d="M49.46,68.53s-.09-.02-.12-.05c-.03-.04-.04-.09-.03-.14l2.07-6.91c.02-.05.06-.09.1-.1.05-.01.1,0,.14.04l6.39,5.96s.06.1.04.16c-.02.06-.07.09-.12.1l-8.46.95s-.01,0-.02,0ZM51.61,61.75l-1.94,6.46,7.92-.89-5.98-5.57Z"/>
        </g>
        <g id="triangle36-78" data-name="triangle36" class="cls-3">
          <path class="cls-96" d="M49.46,68.53s-.02,0-.02,0l-5.67-.84c-.06,0-.11-.05-.12-.11-.02-.06,0-.12.05-.16l7.74-6.07c.05-.04.12-.04.18,0,.05.04.08.1.06.16l-2.07,6.91c-.02.06-.08.11-.14.11ZM44.16,67.45l5.2.76,1.9-6.33-7.1,5.57Z"/>
        </g>
        <g id="triangle36-79" data-name="triangle36" class="cls-3">
          <path class="cls-95" d="M44.54,70.26s-.05,0-.07-.02c-.03-.02-.06-.05-.07-.09l-.75-2.56s0-.1.03-.14c.03-.04.08-.06.13-.05l5.67.83c.07.01.12.07.13.13,0,.07-.03.13-.1.16l-4.92,1.73s-.03,0-.05,0ZM44,67.73l.64,2.19,4.2-1.47-4.84-.71Z"/>
        </g>
        <g id="triangle36-80" data-name="triangle36" class="cls-3">
          <path class="cls-131" d="M48.17,76.22c-.05,0-.1-.03-.13-.07l-3.63-5.96s-.03-.08-.01-.13c.01-.04.05-.08.09-.09l4.92-1.73c.05-.02.11,0,.14.03.04.03.06.09.05.14l-1.29,7.69c-.01.06-.06.11-.12.12,0,0-.02,0-.03,0ZM44.76,70.19l3.33,5.46,1.19-7.04-4.51,1.58Z"/>
        </g>
        <g id="triangle36-81" data-name="triangle36" class="cls-3">
          <path class="cls-145" d="M48.17,76.22s-.06,0-.08-.03l-4.15-2.91s-.07-.09-.06-.15l.52-3.05c.01-.06.06-.11.12-.12.06-.01.12.02.16.07l3.62,5.94s.04.06.04.1c0,.08-.06.15-.15.15h0ZM44.18,73.09l3.49,2.44-3.05-5.01-.44,2.56Z"/>
        </g>
        <g id="triangle36-82" data-name="triangle36" class="cls-3">
          <path class="cls-46" d="M48.17,76.22s-.02,0-.03,0l-5.33-1.07s-.09-.04-.11-.09c-.02-.04-.01-.1.01-.14l1.18-1.84s.06-.06.1-.07c.04,0,.08,0,.12.02l4.13,2.9s.08.07.08.13c0,.08-.07.15-.15.15h0ZM43.08,74.9l4.42.89-3.44-2.41-.98,1.53Z"/>
        </g>
        <g id="triangle36-83" data-name="triangle36" class="cls-3">
          <path class="cls-133" d="M41.78,79.93s-.06,0-.09-.03c-.05-.04-.07-.1-.06-.15l1.06-4.78c.02-.08.09-.13.17-.11l5.33,1.07c.06.01.11.06.12.12.01.06-.02.12-.07.15l-6.39,3.72s-.05.02-.08.02ZM42.95,75.18l-.96,4.31,5.76-3.35-4.8-.96Z"/>
        </g>
        <g id="triangle36-84" data-name="triangle36" class="cls-3">
          <path class="cls-146" d="M57.84,74.66s-.06-.01-.09-.03l-8.38-6.13c-.05-.04-.07-.1-.06-.16.02-.06.07-.1.13-.11l8.46-.95s.08,0,.12.04c.03.03.05.07.05.11l-.09,7.08c0,.06-.03.11-.08.13-.02.01-.05.02-.07.02ZM49.86,68.49l7.83,5.74.08-6.62-7.91.89Z"/>
        </g>
        <g id="triangle36-85" data-name="triangle36" class="cls-3">
          <path class="cls-143" d="M48.17,76.22s-.08-.02-.11-.04c-.03-.04-.05-.08-.04-.13l1.29-7.69s.04-.09.09-.11c.05-.02.1-.01.14.02l8.38,6.13s.07.1.06.16c-.02.06-.06.1-.12.11l-9.67,1.55s-.01,0-.02,0ZM49.57,68.65l-1.22,7.24,9.11-1.47-7.89-5.78Z"/>
        </g>
        <g id="triangle36-86" data-name="triangle36" class="cls-3">
          <path class="cls-153" d="M76.81,76.48s-.02,0-.02,0l-9.3-1.64c-.07-.01-.12-.07-.12-.14,0-.07.04-.13.1-.15l9.39-3.11s.1,0,.14.02c.04.03.06.07.06.12l-.08,4.75s-.02.08-.06.11c-.03.02-.06.03-.1.03ZM68.12,74.64l8.55,1.51.08-4.36-8.62,2.86Z"/>
        </g>
        <g id="triangle36-87" data-name="triangle36" class="cls-3">
          <path class="cls-41" d="M67.51,74.84s-.07-.01-.1-.04c-.04-.03-.06-.09-.05-.14l1.73-8.03s.04-.09.09-.11c.04-.02.1-.01.14.01l7.66,4.92s.07.09.07.14c0,.06-.05.1-.1.12l-9.39,3.11s-.03,0-.05,0ZM69.34,66.9l-1.63,7.57,8.84-2.93-7.21-4.64Z"/>
        </g>
        <g id="triangle36-88" data-name="triangle36" class="cls-3">
          <path class="cls-108" d="M67.51,74.84s-.06-.01-.09-.03l-9.59-7.25s-.07-.1-.05-.16c.02-.06.07-.1.13-.11l11.31-.78s.09.02.12.05c.03.04.04.08.03.13l-1.73,8.03s-.05.09-.09.11c-.02,0-.03,0-.05,0ZM58.33,67.55l9.08,6.87,1.64-7.61-10.72.74Z"/>
        </g>
        <g id="triangle36-89" data-name="triangle36" class="cls-3">
          <path class="cls-58" d="M67.51,74.84h0l-9.67-.17c-.08,0-.15-.07-.15-.15l.09-7.08c0-.06.03-.11.08-.13.05-.02.11-.02.15.01l9.57,7.24s.08.07.08.13c0,.08-.07.15-.15.15h0ZM57.99,74.37l9.07.16-8.98-6.8-.08,6.64Z"/>
        </g>
        <g id="triangle36-90" data-name="triangle36" class="cls-3">
          <path class="cls-93" d="M76.87,82.44h-4.52c-.06,0-.11-.03-.13-.08-.03-.05-.02-.11.01-.16l4.47-5.96c.04-.05.11-.07.17-.05.06.02.1.08.1.14l.06,5.96s-.02.08-.04.11c-.03.03-.07.04-.11.04ZM72.65,82.14h4.07l-.05-5.37-4.02,5.37Z"/>
        </g>
        <g id="triangle36-91" data-name="triangle36" class="cls-3">
          <path class="cls-85" d="M72.35,82.44h0c-.05,0-.09-.03-.12-.07l-4.84-7.6c-.03-.05-.03-.11,0-.16.03-.05.09-.07.15-.06l9.3,1.64c.05,0,.09.04.11.09.02.05.01.1-.02.14l-4.46,5.96s-.07.06-.12.06ZM67.82,74.89l4.54,7.13,4.19-5.59-8.73-1.54Z"/>
        </g>
        <g id="triangle36-92" data-name="triangle36" class="cls-3">
          <path class="cls-92" d="M76.9,87.88s-.09-.02-.12-.05l-4.55-5.44s-.04-.11-.02-.16c.02-.05.08-.09.14-.09h4.52c.08,0,.15.07.15.15l.03,5.44c0,.06-.04.12-.1.14-.02,0-.03,0-.05,0ZM72.67,82.44l4.08,4.88-.03-4.88h-4.05Z"/>
        </g>
        <g id="triangle36-93" data-name="triangle36" class="cls-3">
          <path class="cls-37" d="M72.35,82.44h0l-10.8-.69c-.06,0-.11-.04-.13-.09-.02-.05-.01-.11.02-.15l5.96-6.91s.08-.06.12-.05c.05,0,.09.03.12.07l4.82,7.58s.04.06.04.1c0,.08-.07.15-.15.15h0ZM61.86,81.47l10.2.65-4.57-7.18-5.63,6.53Z"/>
        </g>
        <g id="triangle36-94" data-name="triangle36" class="cls-3">
          <path class="cls-89" d="M61.55,81.74h-.02s-.09-.04-.11-.08l-3.72-7.08s-.02-.1,0-.15c.03-.04.08-.07.13-.07l9.67.17c.06,0,.11.04.14.09.02.05.01.11-.02.16l-5.96,6.91s-.07.05-.11.05ZM58.09,74.67l3.49,6.66,5.61-6.5-9.1-.16Z"/>
        </g>
        <g id="triangle36-95" data-name="triangle36" class="cls-3">
          <path class="cls-38" d="M50.07,82.09c-.06,0-.12-.04-.14-.09-.02-.06,0-.12.04-.17l7.77-7.43s.08-.05.13-.04c.05,0,.09.04.11.08l3.71,7.08s.02.1,0,.14c-.03.04-.07.07-.12.07l-11.49.35h0ZM57.8,74.76l-7.35,7.02,10.86-.33-3.51-6.69Z"/>
        </g>
        <g id="triangle36-96" data-name="triangle36" class="cls-3">
          <path class="cls-79" d="M50.07,82.09s-.02,0-.04,0c-.05-.01-.09-.05-.1-.1l-1.9-5.87s0-.09.02-.12c.02-.04.06-.06.1-.07l9.67-1.55c.06-.01.13.02.16.08.03.06.02.13-.03.17l-7.77,7.43s-.07.04-.1.04ZM48.36,76.19l1.77,5.48,7.25-6.93-9.03,1.45Z"/>
        </g>
        <g id="triangle36-97" data-name="triangle36" class="cls-3">
          <path class="cls-66" d="M50.07,82.09s-.03,0-.04,0l-8.29-2.16c-.06-.01-.1-.06-.11-.12,0-.06.02-.12.07-.15l6.39-3.71s.09-.03.13,0c.04.02.08.05.09.09l1.89,5.85s.02.05.02.07c0,.08-.07.15-.15.15h0ZM42.17,79.73l7.68,2-1.76-5.44-5.92,3.44Z"/>
        </g>
        <g id="triangle36-98" data-name="triangle36" class="cls-3">
          <path class="cls-144" d="M43.85,88.13s-.03,0-.04,0c-.05-.02-.09-.06-.1-.11l-.86-4.23c-.02-.08.03-.15.11-.17l7.08-1.81c.07-.02.14.01.17.07.03.06.02.13-.03.18l-6.22,6.04s-.06.04-.1.04ZM43.16,83.86l.78,3.82,5.62-5.46-6.4,1.64Z"/>
        </g>
        <g id="triangle36-99" data-name="triangle36" class="cls-3">
          <path class="cls-164" d="M42.99,83.9c-.07,0-.12-.04-.14-.1l-1.21-3.97c-.01-.05,0-.11.04-.15.04-.04.09-.05.14-.04l8.29,2.16c.07.02.11.08.11.15s-.05.13-.11.14l-7.08,1.81s-.02,0-.04,0ZM42,79.99l1.09,3.58,6.38-1.63-7.47-1.95Z"/>
        </g>
        <g id="triangle36-100" data-name="triangle36" class="cls-3">
          <path class="cls-40" d="M76.55,99.28s-.09-.02-.12-.06l-7.06-9.24c-.04-.05-.04-.13,0-.18.04-.06.12-.07.18-.04l7.37,3.54c.06.02.09.08.08.14l-.32,5.7c0,.06-.05.12-.11.13-.01,0-.03,0-.04,0ZM69.99,90.29l6.43,8.42.29-5.2-6.72-3.23Z"/>
        </g>
        <g id="triangle36-101" data-name="triangle36" class="cls-3">
          <path class="cls-130" d="M76.87,93.58s-.04,0-.06-.01l-7.37-3.54c-.06-.03-.09-.09-.08-.15,0-.06.05-.11.11-.13l7.4-2.16s.09,0,.13.02c.04.03.06.07.06.12l-.03,5.7c0,.05-.03.1-.07.13-.02.01-.05.02-.08.02ZM69.91,89.92l6.81,3.27.03-5.27-6.84,1.99Z"/>
        </g>
        <g id="triangle36-102" data-name="triangle36" class="cls-3">
          <path class="cls-151" d="M69.5,90.04s-.08-.02-.11-.05c-.04-.04-.05-.1-.03-.15l2.85-7.6s.06-.08.12-.09c.05-.01.1,0,.14.05l4.55,5.44s.04.09.03.14c-.02.05-.05.08-.1.1l-7.4,2.16s-.03,0-.04,0ZM72.4,82.58l-2.66,7.08,6.89-2.01-4.24-5.07Z"/>
        </g>
        <g id="triangle36-103" data-name="triangle36" class="cls-3">
          <path class="cls-104" d="M69.5,90.04s-.08-.02-.11-.05l-7.94-8.29s-.06-.11-.03-.17c.03-.06.08-.09.15-.09l10.79.69s.09.03.12.07c.02.04.03.09.01.13l-2.85,7.6s-.06.08-.11.09c0,0-.02,0-.03,0ZM61.93,81.77l7.52,7.84,2.7-7.19-10.21-.65Z"/>
        </g>
        <g id="triangle36-104" data-name="triangle36" class="cls-3">
          <path class="cls-124" d="M74.97,102.59s-.04,0-.06,0l-10.48-4.26c-.07-.03-.11-.1-.09-.17.02-.07.08-.12.16-.11l12.06.95s.09.03.12.07c.02.04.03.09,0,.14l-1.59,3.31c-.03.05-.08.08-.14.08ZM65.44,98.4l9.46,3.85,1.43-2.99-10.89-.86Z"/>
        </g>
        <g id="triangle36-105" data-name="triangle36" class="cls-3">
          <path class="cls-136" d="M76.55,99.28s0,0-.01,0l-12.06-.95c-.05,0-.1-.04-.12-.08-.02-.05-.02-.1,0-.15l5.01-8.29s.07-.07.12-.07c.05,0,.1.02.12.06l7.04,9.22s.05.07.05.11c0,.08-.07.15-.15.15h0ZM64.74,98.05l11.49.9-6.72-8.8-4.77,7.9Z"/>
        </g>
        <g id="triangle36-106" data-name="triangle36" class="cls-3">
          <path class="cls-115" d="M72.52,104.8s-.07-.01-.09-.03l-8.03-6.48c-.06-.05-.07-.13-.03-.19.04-.07.12-.09.18-.06l10.48,4.26s.08.06.09.11c.01.05,0,.1-.05.14l-2.45,2.21s-.06.04-.1.04ZM65.37,98.7l7.15,5.76,2.18-1.97-9.32-3.79Z"/>
        </g>
        <g id="triangle36-107" data-name="triangle36" class="cls-3">
          <path class="cls-8" d="M69.76,106.07s-.09-.02-.12-.07l-5.27-7.74c-.04-.06-.03-.14.02-.19.06-.05.14-.05.2,0l8.03,6.48s.06.08.05.13c0,.05-.04.1-.09.12l-2.76,1.27s-.04.01-.06.01ZM65.18,98.92l4.63,6.81,2.43-1.11-7.06-5.69Z"/>
        </g>
        <g id="triangle36-108" data-name="triangle36" class="cls-3">
          <path class="cls-128" d="M65.27,106.24c-.08,0-.14-.06-.15-.13l-.78-7.92c0-.07.03-.13.1-.15.06-.02.14,0,.17.06l5.27,7.74s.03.1,0,.15c-.02.05-.07.08-.13.08l-4.49.17h0ZM64.7,98.75l.71,7.19,4.08-.16-4.79-7.04Z"/>
        </g>
        <g id="triangle36-109" data-name="triangle36" class="cls-3">
          <path class="cls-74" d="M61.55,106.33s-.09-.02-.12-.06c-.03-.04-.03-.09-.02-.14l2.94-8c.02-.07.09-.11.16-.1.07,0,.12.06.13.13l.78,7.92s0,.08-.04.11c-.03.03-.07.05-.11.05l-3.71.09h0ZM64.41,98.84l-2.64,7.18,3.33-.08-.7-7.11Z"/>
        </g>
        <g id="triangle36-110" data-name="triangle36" class="cls-3">
          <path class="cls-107" d="M61.55,106.33s0,0-.01,0l-4.15-.32c-.06,0-.11-.04-.13-.09-.02-.05-.01-.11.03-.16l7.08-7.69c.05-.05.12-.06.19-.03.06.04.09.11.06.18l-2.94,8c-.02.06-.08.1-.14.1ZM57.73,105.74l3.73.29,2.64-7.19-6.36,6.91Z"/>
        </g>
        <g id="triangle36-111" data-name="triangle36" class="cls-3">
          <path class="cls-157" d="M57.41,106.01s-.02,0-.03,0c-.05-.01-.09-.05-.11-.1l-2.59-7.6s0-.09.02-.13c.03-.04.07-.06.12-.06l9.67-.09h0c.06,0,.11.03.14.09.02.05.02.12-.03.16l-7.08,7.69s-.07.05-.11.05ZM55.03,98.41l2.44,7.17,6.68-7.25-9.12.08Z"/>
        </g>
        <g id="triangle36-112" data-name="triangle36" class="cls-3">
          <path class="cls-134" d="M53.18,106.19s-.09-.02-.11-.05c-.03-.04-.04-.08-.03-.13l1.64-7.77c.02-.07.07-.12.14-.12.07,0,.13.04.15.1l2.59,7.6s0,.09-.02.13c-.03.04-.07.06-.12.06l-4.23.17h0ZM54.85,98.83l-1.49,7.06,3.84-.16-2.35-6.9Z"/>
        </g>
        <g id="triangle36-113" data-name="triangle36" class="cls-3">
          <path class="cls-60" d="M48.25,106.22c-.06,0-.11-.04-.13-.09-.02-.05-.02-.12.02-.16l6.56-7.8c.04-.05.12-.07.18-.04.06.03.09.1.08.17l-1.64,7.77c-.02.07-.07.12-.15.12l-4.92.03h0ZM54.55,98.82l-5.97,7.1,4.48-.03,1.49-7.07Z"/>
        </g>
        <g id="triangle36-114" data-name="triangle36" class="cls-3">
          <path class="cls-147" d="M48.25,106.22s-.01,0-.02,0c-.05,0-.09-.04-.12-.08l-3.71-7.46s-.02-.1,0-.14.07-.07.12-.07l10.28-.34c.06,0,.11.03.14.08.02.05.02.12-.02.16l-6.56,7.8s-.07.05-.12.05ZM44.78,98.75l3.51,7.04,6.2-7.37-9.71.33Z"/>
        </g>
        <g id="triangle36-115" data-name="triangle36" class="cls-3">
          <path class="cls-162" d="M43.59,106.24s-.08-.02-.11-.05c-.03-.03-.04-.08-.04-.12l.95-7.49c0-.07.06-.12.12-.13.06-.01.13.02.16.08l3.71,7.46s.02.1,0,.14c-.03.04-.07.07-.13.07l-4.66.03h0ZM44.63,99.12l-.87,6.83,4.25-.03-3.39-6.8Z"/>
        </g>
        <g id="triangle36-116" data-name="triangle36" class="cls-3">
          <path class="cls-56" d="M43.59,106.24s-.05,0-.07-.02l-4.92-2.48s-.08-.06-.08-.11c0-.05.01-.1.05-.13l5.87-5.01s.11-.05.17-.02c.06.03.09.09.08.15l-.95,7.49s-.04.09-.08.11c-.02.01-.05.02-.07.02ZM38.94,103.59l4.53,2.28.87-6.89-5.41,4.61Z"/>
        </g>
        <g id="triangle36-117" data-name="triangle36" class="cls-3">
          <path class="cls-149" d="M44.54,98.76h0l-5.7-.09c-.08,0-.15-.06-.15-.14l-.17-5.1c0-.06.03-.11.08-.14.06-.02.12-.02.16.02l5.87,5.18s.06.11.04.17c-.02.06-.08.09-.14.09ZM38.99,98.38l5.15.08-5.31-4.69.16,4.61Z"/>
        </g>
        <g id="triangle36-118" data-name="triangle36" class="cls-3">
          <path class="cls-2" d="M38.67,103.77s-.04,0-.06-.01c-.05-.03-.09-.08-.08-.14l.17-5.09c0-.08.06-.15.15-.14l5.7.09c.06,0,.12.04.14.1.02.06,0,.12-.04.16l-5.87,5.01s-.06.04-.1.04ZM38.99,98.68l-.16,4.61,5.32-4.53-5.16-.08Z"/>
        </g>
        <g id="triangle36-119" data-name="triangle36" class="cls-3">
          <path class="cls-140" d="M44.54,98.76s-.08-.02-.11-.05c-.03-.03-.04-.07-.04-.12l.6-6.74c0-.05.04-.1.08-.12.05-.02.1-.02.15,0l9.67,6.39c.06.04.08.1.06.16-.02.06-.07.11-.14.11l-10.28.34h0ZM45.27,92.14l-.57,6.32,9.64-.32-9.07-5.99Z"/>
        </g>
        <g id="triangle36-120" data-name="triangle36" class="cls-3">
          <path class="cls-127" d="M45.15,92.02h-.01c-.06,0-.11-.04-.13-.1l-1.3-3.89c-.02-.05,0-.11.04-.15l6.22-6.05c.05-.05.13-.06.19-.01.06.04.08.12.05.19l-4.92,9.93c-.02.05-.08.08-.13.08ZM44.02,88.03l1.15,3.46,4.38-8.83-5.53,5.37Z"/>
        </g>
        <g id="triangle36-121" data-name="triangle36" class="cls-3">
          <path class="cls-106" d="M44.54,98.76s-.07-.01-.1-.04l-5.87-5.18s-.06-.09-.05-.15c.01-.05.06-.1.11-.11l6.48-1.55s.1,0,.13.03c.04.03.06.08.05.13l-.6,6.74c0,.06-.04.1-.09.13-.02,0-.04,0-.06,0ZM38.98,93.51l5.44,4.8.56-6.23-6,1.44Z"/>
        </g>
        <g id="triangle36-122" data-name="triangle36" class="cls-3">
          <path class="cls-61" d="M45.15,92.02s-.07-.01-.1-.04l-4.46-3.89s-.06-.11-.04-.16c.02-.06.08-.1.14-.1h3.16c.07,0,.12.04.14.1l1.29,3.86s.02.05.02.07c0,.08-.07.15-.15.15h0ZM41.09,88.13l3.74,3.27-1.09-3.27h-2.66Z"/>
        </g>
        <g id="triangle36-123" data-name="triangle36" class="cls-3">
          <path class="cls-166" d="M38.67,93.58s-.08-.02-.11-.05c-.04-.04-.05-.1-.03-.15l2.02-5.44s.06-.08.1-.09c.05-.01.1,0,.13.03l4.46,3.89s.06.09.05.15c-.01.05-.06.1-.11.11l-6.48,1.56s-.02,0-.04,0ZM40.75,88.24l-1.85,4.98,5.92-1.42-4.08-3.56Z"/>
        </g>
        <g id="triangle36-124" data-name="triangle36" class="cls-3">
          <path class="cls-109" d="M64.49,98.33s-.09-.02-.12-.06l-6.91-9.41s-.04-.11,0-.16c.03-.05.09-.08.14-.08l11.92,1.12c.05,0,.1.04.12.08.02.04.02.1,0,.14l-5.01,8.29s-.07.07-.12.07h0ZM57.9,88.94l6.58,8.96,4.77-7.9-11.35-1.07Z"/>
        </g>
        <g id="triangle36-125" data-name="triangle36" class="cls-3">
          <path class="cls-71" d="M69.5,90.04s0,0-.01,0l-11.92-1.12c-.05,0-.1-.03-.12-.08-.02-.05-.02-.1,0-.14l3.97-7.17s.06-.07.11-.08c.05,0,.09.01.13.05l7.93,8.27s.06.07.06.12c0,.08-.06.15-.15.15h0ZM57.82,88.64l11.29,1.06-7.53-7.86-3.76,6.79Z"/>
        </g>
        <g id="triangle36-126" data-name="triangle36" class="cls-3">
          <path class="cls-163" d="M54.82,98.41s-.09-.02-.12-.06c-.03-.04-.04-.09-.02-.13l2.76-9.5c.02-.05.06-.1.12-.1.05,0,.11.01.15.06l6.91,9.41s.04.11.01.16c-.03.05-.08.08-.13.08l-9.67.09h0ZM57.64,89.1l-2.62,9.02,9.18-.08-6.56-8.93Z"/>
        </g>
        <g id="triangle36-127" data-name="triangle36" class="cls-3">
          <path class="cls-142" d="M57.58,88.91s-.07-.01-.1-.04l-7.51-6.82s-.06-.1-.04-.16c.02-.06.08-.09.14-.1l11.49-.34c.06,0,.11.02.13.07.03.05.03.1,0,.15l-3.97,7.17s-.06.07-.11.08c0,0-.02,0-.02,0ZM50.44,82.08l7.1,6.45,3.75-6.77-10.85.33Z"/>
        </g>
        <g id="triangle36-128" data-name="triangle36" class="cls-3">
          <path class="cls-110" d="M54.82,98.41s-.06,0-.08-.03l-9.67-6.39s-.07-.09-.07-.15c0-.06.05-.1.11-.12l12.44-3.11c.05-.01.11,0,.14.04.04.04.05.09.04.14l-2.77,9.5s-.05.08-.09.1c-.02,0-.03,0-.05,0ZM45.51,91.94l9.22,6.09,2.64-9.06-11.85,2.96Z"/>
        </g>
        <g id="triangle36-129" data-name="triangle36" class="cls-3">
          <path class="cls-103" d="M45.15,92.02s-.09-.02-.12-.06c-.04-.05-.04-.11-.02-.16l4.92-9.93s.06-.07.11-.08c.05,0,.09,0,.13.04l7.51,6.82s.06.09.04.15c-.01.05-.06.09-.11.11l-12.44,3.11s-.02,0-.04,0ZM50.11,82.19l-4.69,9.47,11.85-2.96-7.16-6.5Z"/>
        </g>
        <g>
          <path class="cls-155" d="M21.63,34.57v8.4H6.22v-8.4c0-8.65,3.37-16.79,9.49-22.91,6.12-6.12,14.26-9.49,22.91-9.49v1.66c-.07,0-.14,0-.2,0h0c-8.14.05-15.77,3.24-21.53,9-5.81,5.81-9,13.52-9,21.74v6.74h12.1v-6.74c0-10.21,8.26-18.53,18.44-18.64h0c.07,0,.13,0,.2,0v1.65c-9.37,0-16.98,7.62-16.98,16.98Z"/>
          <path class="cls-102" d="M31.67,89.25l3.03-12.38c-1.92-1.27-3.19-3.45-3.19-5.92,0-3.85,3.07-6.98,6.89-7.09h0c.07,0,.13,0,.2,0v1.66c-3,0-5.44,2.43-5.44,5.43,0,1.83.91,3.53,2.44,4.54l.98.64-2.81,11.46h4.83v1.65h-6.94Z"/>
          <path class="cls-1" d="M9.73,46.36h28.88v1.66H9.73c-4.46,0-8.07,3.61-8.07,8.07v40.67c0,4.45,3.61,8.06,8.07,8.06h28.88v1.66H9.73c-5.36,0-9.73-4.37-9.73-9.72v-40.67c0-5.36,4.36-9.72,9.73-9.72Z"/>
          <path class="cls-88" d="M19.97,34.57v6.74H7.87v-6.74c0-8.21,3.2-15.93,9-21.74,5.76-5.76,13.4-8.95,21.53-9v12.1c-10.18.11-18.44,8.43-18.44,18.64Z"/>
          <path class="cls-122" d="M31.52,70.95c0,2.47,1.26,4.65,3.19,5.92l-3.03,12.38h6.74v15.58H9.73c-4.46,0-8.07-3.61-8.07-8.06v-40.67c0-4.46,3.61-8.07,8.07-8.07h28.68v15.84c-3.82.11-6.89,3.23-6.89,7.09Z"/>
          <path class="cls-105" d="M38.41,3.83h0c.06,0,.14,0,.2,0h0c-.07,0-.14,0-.2,0Z"/>
          <path class="cls-5" d="M38.41,3.83h0c.06,0,.14,0,.2,0h0c-.07,0-.14,0-.2,0Z"/>
          <path class="cls-137" d="M38.61,15.93c-.07,0-.14,0-.2.01h0c.07,0,.13-.01.2-.01h0Z"/>
          <path class="cls-47" d="M38.61,15.93c-.07,0-.14,0-.2.01h0c.07,0,.13-.01.2-.01h0Z"/>
          <path class="cls-117" d="M38.61,15.93c-.07,0-.14,0-.2,0V3.83c.07,0,.13,0,.2,0v12.1Z"/>
          <path class="cls-148" d="M16.87,12.83c5.76-5.76,13.4-8.95,21.53-9,.07,0,.13,0,.2,0v12.1c-.07,0-.14,0-.2,0-10.18.11-18.44,8.43-18.44,18.64v6.74H7.87v-6.74c0-8.21,3.2-15.93,9-21.74Z"/>
          <path class="cls-119" d="M38.41,63.87h0c.07,0,.13,0,.2,0h0c-.07,0-.14,0-.2,0Z"/>
          <path class="cls-34" d="M38.41,63.87h0c.07,0,.13,0,.2,0h0c-.07,0-.14,0-.2,0Z"/>
          <rect class="cls-73" x="38.41" y="89.25" width=".2" height="15.58"/>
          <path class="cls-78" d="M38.41,63.86v-15.84h.2v15.84c-.07,0-.14,0-.2,0Z"/>
          <path class="cls-29" d="M9.73,48.02h28.88v15.84c-.07,0-.14,0-.2,0-3.82.11-6.89,3.23-6.89,7.09,0,2.47,1.26,4.65,3.19,5.92l-3.03,12.38h6.94v15.58H9.73c-4.46,0-8.07-3.61-8.07-8.06v-40.67c0-4.46,3.61-8.07,8.07-8.07Z"/>
        </g>
        <g>
          <path class="cls-25" d="M40.34,2.99c0,1.65,1.34,2.99,2.99,2.99s2.99-1.34,2.99-2.99-1.34-2.99-2.99-2.99-2.99,1.34-2.99,2.99Z"/>
          <path class="cls-23" d="M52.92,18.73c0,2.86,2.32,5.19,5.18,5.19s5.18-2.32,5.18-5.19-2.32-5.18-5.18-5.18-5.18,2.32-5.18,5.18Z"/>
          <path class="cls-15" d="M51.5,31.68c0,2.39,1.94,4.33,4.33,4.33s4.33-1.94,4.33-4.33-1.94-4.33-4.33-4.33-4.33,1.94-4.33,4.33Z"/>
          <path class="cls-11" d="M66.68,37.21c0,2.1,1.7,3.8,3.79,3.8s3.79-1.7,3.79-3.8-1.7-3.79-3.79-3.79-3.79,1.7-3.79,3.79Z"/>
          <path class="cls-24" d="M59.37,20.27c0,4.31,3.49,7.8,7.8,7.8s7.8-3.49,7.8-7.8-3.49-7.8-7.8-7.8-7.8,3.49-7.8,7.8Z"/>
          <path class="cls-16" d="M38.69,46.36c0,2.39,1.94,4.33,4.33,4.33s4.33-1.94,4.33-4.33-1.94-4.33-4.33-4.33-4.33,1.94-4.33,4.33Z"/>
          <path class="cls-12" d="M55.47,74.41c0,1.5,1.22,2.73,2.73,2.73s2.73-1.22,2.73-2.73-1.22-2.73-2.73-2.73-2.73,1.22-2.73,2.73Z"/>
          <path class="cls-10" d="M48.81,61.47c0,1.51,1.22,2.73,2.72,2.73s2.73-1.22,2.73-2.73-1.22-2.73-2.73-2.73-2.72,1.22-2.72,2.73Z"/>
          <path class="cls-20" d="M73.83,56.54c0,1.51,1.22,2.73,2.72,2.73s2.73-1.22,2.73-2.73-1.22-2.73-2.73-2.73-2.72,1.22-2.72,2.73Z"/>
          <path class="cls-17" d="M54.82,8.71c0,1.51,1.22,2.73,2.73,2.73s2.72-1.22,2.72-2.73-1.22-2.73-2.72-2.73-2.73,1.22-2.73,2.73Z"/>
          <path class="cls-26" d="M75.48,66.66c0,.8.65,1.44,1.44,1.44s1.44-.64,1.44-1.44-.65-1.44-1.44-1.44-1.44.65-1.44,1.44Z"/>
          <path class="cls-27" d="M59.55,98.26c0,2.48,2.01,4.49,4.49,4.49s4.49-2.01,4.49-4.49-2.01-4.49-4.49-4.49-4.49,2.01-4.49,4.49Z"/>
          <path class="cls-21" d="M37.56,99.13c0,4.02,3.25,7.27,7.27,7.27s7.27-3.25,7.27-7.27-3.25-7.27-7.27-7.27-7.27,3.26-7.27,7.27Z"/>
          <path class="cls-14" d="M70.19,87.73c0,3.72,3.02,6.74,6.73,6.74s6.73-3.01,6.73-6.74-3.02-6.73-6.73-6.73-6.73,3.01-6.73,6.73Z"/>
          <path class="cls-22" d="M53.17,54.22c0,4.25,3.45,7.7,7.7,7.7s7.7-3.45,7.7-7.7-3.45-7.7-7.7-7.7-7.7,3.45-7.7,7.7Z"/>
          <path class="cls-19" d="M38.41,76.35c0,1.53,1.24,2.78,2.78,2.78s2.78-1.24,2.78-2.78-1.24-2.78-2.78-2.78-2.78,1.24-2.78,2.78Z"/>
          <path class="cls-13" d="M56.2,105.92c0,.83.67,1.5,1.5,1.5s1.5-.67,1.5-1.5-.67-1.49-1.5-1.49-1.5.67-1.5,1.49Z"/>
          <path class="cls-18" d="M46.73,81.94c0,1.94,1.57,3.51,3.51,3.51s3.51-1.57,3.51-3.51-1.57-3.51-3.51-3.51-3.51,1.57-3.51,3.51Z"/>
        </g>
      </g>
    </g>
  </g>
</svg>