<?xml version="1.0" encoding="UTF-8"?>
<svg id="Layer_1" data-name="Layer 1" xmlns="http://www.w3.org/2000/svg" xmlns:xlink="http://www.w3.org/1999/xlink" viewBox="0 0 471.87 200">
  <defs>
    <style>
      .cls-1 {
        fill: #010b23;
      }
    </style>
  </defs>
  <g>
    <g>
      <path class="cls-1" d="M217.34,110.53c-.35,1.79-.66,3.74-.93,5.83-4.87.99-9.34,1.48-13.4,1.48-3.61,0-7.1-.55-10.46-1.65-3.36-1.1-6.29-2.8-8.78-5.1s-4.3-5.01-5.44-8.13c-1.14-3.12-1.71-6.46-1.71-10.02,0-3.81.63-7.48,1.89-11.02,1.26-3.54,3.17-6.54,5.73-9,2.56-2.46,5.65-4.3,9.28-5.53,3.62-1.22,7.42-1.84,11.37-1.84,4.25,0,8.5.45,12.73,1.34.02,1.25.16,3.17.41,5.75-2.75-.84-5.08-1.4-7.01-1.69-1.93-.28-3.76-.43-5.49-.43-2.94,0-5.76.45-8.46,1.35-2.7.9-5.08,2.34-7.16,4.32-2.08,1.98-3.67,4.41-4.77,7.29-1.1,2.88-1.65,5.88-1.65,9,0,2.89.44,5.64,1.32,8.24.88,2.6,2.23,4.79,4.04,6.59,1.82,1.79,3.98,3.17,6.48,4.12,2.5.95,5.31,1.43,8.42,1.43,3.93,0,8.46-.78,13.58-2.34Z"/>
      <path class="cls-1" d="M217,134.21c-.17-2.09-.38-3.86-.63-5.31,1.24.59,2.39,1,3.45,1.21s1.97.32,2.71.32c.97,0,1.91-.17,2.82-.52.92-.35,1.66-.81,2.23-1.38s1.17-1.36,1.8-2.37c.63-1.01,1.3-2.19,2.01-3.54.71-1.35,1.38-2.87,2.03-4.54l-7.92-22.53-5.8-16.11c1.8.05,3,.07,3.6.07.69,0,1.82-.02,3.37-.07.4,1.73.73,3.05,1,3.97.27.92.87,2.78,1.79,5.6l5.62,17.02c.62,1.93,1.24,4.01,1.86,6.23l4.2-10.24,7.77-18.13c.22-.54.44-1.11.65-1.69.21-.58.54-1.5.98-2.76,1.57.05,2.67.07,3.29.07.52,0,1.66-.02,3.43-.07-.96,2.2-3.3,7.33-7.01,15.39l-13.76,30.6c-.97,2.05-1.85,3.61-2.64,4.67-.64.84-1.34,1.57-2.08,2.19-.59.52-1.26.96-2.01,1.33-.92.45-1.91.79-2.97,1.04-1.16.25-2.35.37-3.57.37-1.91,0-3.99-.27-6.24-.82Z"/>
      <path class="cls-1" d="M258.7,117.03l.33-4.16c.05-.74.12-2.14.22-4.19l1.03-25.16.44-17.14c1.51.02,2.69.04,3.53.04s1.97-.01,3.31-.04c-.35,3.17-.65,7.72-.93,13.66,2.6-.57,4.72-.95,6.38-1.15,1.66-.2,3.29-.3,4.9-.3,3.12,0,5.86.4,8.24,1.19,2.38.79,4.33,2.1,5.88,3.93,1.55,1.83,2.64,3.85,3.28,6.05.64,2.2.96,4.54.96,7.01,0,2.82-.39,5.55-1.17,8.18s-1.95,4.97-3.52,7.01c-1.57,2.04-3.48,3.53-5.73,4.47-2.25.94-4.71,1.41-7.38,1.41-1.43,0-2.78-.15-4.04-.46s-2.4-.74-3.41-1.28c-1.01-.54-1.87-1.16-2.58-1.86-.71-.69-1.29-1.38-1.74-2.08-.46-.69-.97-1.64-1.54-2.86l-.11,7.72c-1.44-.05-2.45-.07-3.04-.07-.42,0-1.52.03-3.31.07ZM266.28,85c-.17,4.11-.3,6.83-.37,8.14-.07,1.31-.11,2.89-.11,4.72,0,3.89.44,6.88,1.33,8.96.89,2.08,2.22,3.65,4,4.72,1.78,1.07,3.79,1.6,6.04,1.6,2.59,0,4.83-.66,6.71-1.97,1.88-1.31,3.33-3.31,4.37-5.99,1.04-2.68,1.56-5.47,1.56-8.37,0-4.08-1.08-7.37-3.24-9.87-2.16-2.5-5.42-3.75-9.76-3.75-1.51,0-3.07.13-4.69.38-1.62.25-3.56.73-5.83,1.44Z"/>
      <path class="cls-1" d="M332.43,111.13c-.3,1.36-.59,3.09-.89,5.2-2.38.59-4.43,1-6.18,1.21s-3.48.32-5.21.32c-3.09,0-5.87-.37-8.33-1.11-2.46-.74-4.57-2.03-6.33-3.88-1.76-1.84-3.02-3.95-3.79-6.33-.77-2.38-1.15-4.89-1.15-7.53,0-3.69.71-7.11,2.12-10.26s3.53-5.63,6.36-7.44c2.83-1.81,6.43-2.71,10.78-2.71,2.25,0,4.4.33,6.46.98,2.05.66,3.76,1.65,5.12,2.99,1.36,1.34,2.41,2.99,3.15,4.95s1.11,4.11,1.11,6.44c0,.89-.07,1.76-.22,2.6h-28.31c-.1,1.36-.15,2.4-.15,3.12,0,2.6.54,4.99,1.63,7.18,1.09,2.19,2.7,3.85,4.82,4.97,2.13,1.13,4.58,1.69,7.35,1.69,3.19,0,7.08-.79,11.65-2.38ZM307.42,93.46h22.12c-.03-1.56-.12-2.77-.3-3.64-.17-.87-.5-1.76-.96-2.69-.47-.93-1.11-1.73-1.91-2.41-.8-.68-1.77-1.2-2.89-1.56-1.13-.36-2.34-.54-3.66-.54-1.41,0-2.75.2-4.03.59-1.27.4-2.4.94-3.38,1.63-.98.69-1.81,1.5-2.49,2.43-.68.93-1.19,1.82-1.52,2.69-.33.87-.66,2.03-.98,3.49Z"/>
      <path class="cls-1" d="M339.99,117.03c.89-14.27,1.33-25.67,1.33-34.18l-.04-3.41c1.26.02,2.3.04,3.12.04.94,0,1.99-.01,3.16-.04l-.3,6.16c.92-1.53,1.73-2.69,2.43-3.47s1.5-1.42,2.39-1.93c.89-.51,1.9-.9,3.02-1.19,1.12-.28,2.29-.43,3.51-.43,1.04,0,2.07.12,3.08.37.02,1.63.11,3.46.26,5.49-1.53-.42-2.91-.63-4.12-.63-1.46,0-2.77.24-3.93.72-1.16.48-2.21,1.21-3.14,2.19-.93.98-1.69,2.15-2.28,3.51-.5,1.09-.87,2.5-1.13,4.23-.26,1.73-.46,4.89-.61,9.46-.1,3.34-.15,6.88-.15,10.61v2.49c-1.34-.05-2.41-.07-3.23-.07-.74,0-1.87.03-3.38.07Z"/>
      <path class="cls-1" d="M364.85,117.03l.63-10.06.78-19.26.41-16.14c.02-2.35.04-4.08.04-5.2l3.45.04c.67,0,1.75-.01,3.23-.04-.32,3.98-.71,11.72-1.17,23.21-.46,11.49-.72,20.64-.8,27.44-1.54-.05-2.61-.07-3.23-.07-.69,0-1.81.03-3.34.07ZM372.49,96.04l7.57-8.08c2.65-2.82,5.15-5.66,7.5-8.53,1.71.02,2.94.04,3.71.04.96,0,2.29-.01,3.97-.04l-16.05,16.64c3,3.91,8.79,10.9,17.39,20.95-1.53-.05-2.77-.07-3.7-.07s-2.21.03-3.82.07l-5.46-7.24c-.52-.67-1.67-2.08-3.45-4.23l-5.76-7.02-1.89-2.49Z"/>
      <path class="cls-1" d="M430.08,111.13c-.3,1.36-.59,3.09-.89,5.2-2.38.59-4.43,1-6.18,1.21s-3.48.32-5.21.32c-3.09,0-5.87-.37-8.33-1.11-2.46-.74-4.57-2.03-6.33-3.88-1.76-1.84-3.02-3.95-3.79-6.33-.77-2.38-1.15-4.89-1.15-7.53,0-3.69.71-7.11,2.12-10.26s3.53-5.63,6.36-7.44c2.83-1.81,6.43-2.71,10.78-2.71,2.25,0,4.4.33,6.46.98,2.05.66,3.76,1.65,5.12,2.99,1.36,1.34,2.41,2.99,3.15,4.95s1.11,4.11,1.11,6.44c0,.89-.07,1.76-.22,2.6h-28.31c-.1,1.36-.15,2.4-.15,3.12,0,2.6.54,4.99,1.63,7.18,1.09,2.19,2.7,3.85,4.82,4.97,2.13,1.13,4.58,1.69,7.35,1.69,3.19,0,7.08-.79,11.65-2.38ZM405.07,93.46h22.12c-.03-1.56-.12-2.77-.3-3.64-.17-.87-.5-1.76-.96-2.69-.47-.93-1.11-1.73-1.91-2.41-.8-.68-1.77-1.2-2.89-1.56-1.13-.36-2.34-.54-3.66-.54-1.41,0-2.75.2-4.03.59-1.27.4-2.4.94-3.38,1.63-.98.69-1.81,1.5-2.49,2.43-.68.93-1.19,1.82-1.52,2.69-.33.87-.66,2.03-.98,3.49Z"/>
      <path class="cls-1" d="M431.6,134.21c-.17-2.09-.38-3.86-.63-5.31,1.24.59,2.39,1,3.46,1.21,1.06.21,1.97.32,2.71.32.97,0,1.91-.17,2.82-.52.92-.35,1.66-.81,2.23-1.38s1.17-1.36,1.8-2.37c.63-1.01,1.3-2.19,2.01-3.54.71-1.35,1.38-2.87,2.03-4.54l-7.92-22.53-5.8-16.11c1.8.05,3,.07,3.6.07.69,0,1.82-.02,3.37-.07.4,1.73.73,3.05,1,3.97.27.92.87,2.78,1.79,5.6l5.62,17.02c.62,1.93,1.24,4.01,1.86,6.23l4.2-10.24,7.77-18.13c.22-.54.44-1.11.65-1.69.21-.58.54-1.5.98-2.76,1.58.05,2.67.07,3.29.07.52,0,1.66-.02,3.43-.07-.96,2.2-3.3,7.33-7.01,15.39l-13.76,30.6c-.97,2.05-1.84,3.61-2.64,4.67-.64.84-1.34,1.57-2.08,2.19-.59.52-1.26.96-2.01,1.33-.92.45-1.91.79-2.97,1.04-1.17.25-2.35.37-3.57.37-1.91,0-3.99-.27-6.24-.82Z"/>
    </g>
    <g>
      <path class="cls-1" d="M242.54,139.03l.37-5.43.4-10.67c0-.43.01-1.06.01-1.9,1.11.02,2.05.03,2.83.03.49,0,1.25,0,2.28-.03,1.03-.02,1.76-.03,2.19-.03,1.47,0,2.7.11,3.69.34.76.17,1.45.46,2.08.88.63.42,1.19.97,1.68,1.65.49.68.86,1.43,1.09,2.25.28.98.42,2.01.42,3.08,0,1.47-.26,2.88-.78,4.23-.52,1.35-1.29,2.47-2.31,3.38-1.02.9-2.17,1.49-3.44,1.78-1.27.29-2.69.43-4.25.43l-3.68-.03c-.24,0-1.1,0-2.58.03ZM245.08,137.26c1.07.03,2.07.04,2.99.04.77,0,1.56-.04,2.36-.11.8-.08,1.52-.21,2.16-.42.64-.2,1.26-.57,1.88-1.09.61-.52,1.12-1.12,1.51-1.78.39-.66.68-1.41.88-2.23.19-.82.29-1.65.29-2.5,0-.95-.12-1.83-.37-2.64-.25-.81-.67-1.54-1.26-2.19-.59-.65-1.3-1.08-2.11-1.3-.81-.22-1.89-.32-3.22-.32-1.64,0-3.15.01-4.51.04l-.59,14.49Z"/>
      <path class="cls-1" d="M268.14,125.37c.92,0,1.8.13,2.64.4.83.26,1.56.68,2.17,1.25s1.07,1.29,1.39,2.16c.32.87.47,1.79.47,2.75,0,1.05-.17,2.05-.51,3.01s-.81,1.77-1.42,2.44c-.61.67-1.36,1.16-2.24,1.47-.88.31-1.83.47-2.84.47-.94,0-1.83-.14-2.66-.42-.84-.28-1.56-.72-2.17-1.32-.61-.6-1.07-1.33-1.39-2.2-.32-.87-.47-1.77-.47-2.72,0-1.43.29-2.72.87-3.87.58-1.15,1.43-2,2.56-2.57,1.12-.57,2.33-.85,3.61-.85ZM268.08,127.05c-.89,0-1.72.22-2.47.67s-1.3,1.12-1.66,2.02c-.36.9-.54,1.88-.54,2.95,0,.93.15,1.77.45,2.51.3.74.79,1.34,1.47,1.8.69.46,1.51.69,2.47.69.66,0,1.28-.11,1.87-.34.59-.22,1.1-.6,1.54-1.11.44-.52.76-1.15.97-1.91.21-.75.32-1.54.32-2.37,0-.77-.11-1.5-.32-2.18-.21-.68-.53-1.22-.97-1.63-.44-.41-.93-.7-1.47-.86-.55-.17-1.1-.25-1.67-.25Z"/>
      <path class="cls-1" d="M276.69,139.03l.15-1.91c.03-.4.06-1.04.1-1.91l.32-8.03c0-.66.01-1.16.01-1.5.41,0,.79.01,1.13.01.37,0,.73,0,1.09-.01l-.12,2.45c.3-.49.57-.88.81-1.17.24-.29.56-.56.96-.8.4-.25.85-.44,1.35-.57.5-.14,1.03-.2,1.58-.2.38,0,.75.04,1.12.13s.71.21,1.02.37c.31.16.58.34.8.54.22.2.4.42.54.66.14.24.27.58.42,1.03.54-1.01,1.21-1.72,2.01-2.12.8-.4,1.7-.61,2.7-.61.63,0,1.25.1,1.84.3.59.2,1.07.49,1.42.87s.59.77.71,1.18c.12.41.18.82.18,1.23s-.03,1.05-.09,1.9c-.06.84-.13,2.13-.21,3.86-.08,1.73-.12,3.17-.13,4.32-.47-.02-.83-.03-1.1-.03-.28,0-.7,0-1.25.03.1-1.19.18-2.48.25-3.88l.17-3.27c.04-.79.07-1.47.07-2.04,0-.51-.05-.91-.16-1.2s-.28-.55-.51-.78c-.23-.23-.52-.4-.86-.52s-.73-.18-1.17-.18c-.35,0-.68.04-.98.12-.28.08-.55.2-.82.36-.29.17-.55.38-.78.62-.23.24-.42.51-.58.81-.17.31-.3.67-.41,1.1-.13.53-.22,1.18-.28,1.94-.06.82-.11,1.89-.14,3.23l-.1,3.69c-.51-.02-.89-.03-1.15-.03-.24,0-.64,0-1.2.03.09-1.09.16-2.21.21-3.36l.16-3.19c.04-.98.07-1.82.07-2.52,0-.45-.04-.83-.13-1.14-.09-.31-.25-.6-.49-.86-.24-.26-.53-.46-.88-.59-.34-.14-.72-.2-1.13-.2-.44,0-.86.08-1.25.23-.4.15-.76.38-1.09.68s-.62.67-.84,1.1c-.23.43-.41,1.01-.53,1.71-.13.71-.23,1.94-.3,3.7-.07,1.76-.11,3.24-.11,4.44-.56-.02-.95-.03-1.16-.03-.23,0-.63,0-1.2.03Z"/>
      <path class="cls-1" d="M300.05,127.8c.08-.39.16-.96.25-1.71,1.05-.27,1.97-.46,2.75-.56.78-.1,1.54-.15,2.27-.15.79,0,1.53.07,2.22.22.69.14,1.26.38,1.72.71s.76.7.91,1.12c.15.42.22.88.22,1.36,0,.61-.05,1.62-.14,3.05-.09,1.43-.16,2.75-.21,3.96-.05,1.21-.07,2.29-.07,3.24-.48-.02-.86-.03-1.16-.03-.28,0-.68,0-1.2.03l.28-3.6.2-4.26c-.31.24-.54.4-.69.5s-.33.19-.52.27c-.19.08-.41.16-.64.24-.23.07-.69.2-1.36.39s-1.15.33-1.43.42c-.61.19-1.09.39-1.44.58-.35.19-.65.4-.88.63s-.4.46-.5.69c-.12.28-.17.58-.17.88,0,.47.14.89.42,1.24.28.35.63.6,1.06.73.43.14.94.2,1.54.2.37,0,.75-.03,1.16-.08.4-.05.94-.18,1.62-.4-.12.34-.26.86-.42,1.57-.64.12-1.17.2-1.57.23-.41.03-.79.05-1.15.05-1.2,0-2.14-.14-2.82-.42s-1.18-.71-1.52-1.29c-.33-.58-.5-1.2-.5-1.88,0-.4.06-.76.18-1.09.12-.33.28-.64.48-.91.2-.27.49-.54.86-.82.37-.27.76-.5,1.17-.67.41-.18.89-.35,1.43-.52.54-.17,1.42-.4,2.62-.69.39-.09.72-.18.99-.27.27-.09.51-.18.73-.27s.4-.19.55-.31c.16-.12.3-.26.43-.44.13-.17.23-.34.29-.52s.09-.35.09-.53c0-.43-.14-.8-.42-1.11s-.65-.52-1.1-.65c-.45-.12-.99-.18-1.6-.18-.57,0-1.16.05-1.76.14-.6.09-1.12.2-1.56.33-.44.13-.98.32-1.63.57Z"/>
      <path class="cls-1" d="M312.94,139.03l.23-3.32.25-5.67.11-4.36h1.21s1.19,0,1.19,0c-.1,1.37-.19,2.81-.27,4.3-.08,1.5-.15,3.14-.2,4.91-.05,1.78-.07,3.16-.07,4.14-.55-.02-.95-.03-1.19-.03-.22,0-.64,0-1.27.03ZM313.55,122.8c.03-.83.04-1.45.04-1.87.48.02.91.03,1.28.03.47,0,.89,0,1.27-.03-.02.27-.04.9-.08,1.87-.47,0-.88-.01-1.23-.01s-.77,0-1.28.01Z"/>
      <path class="cls-1" d="M318.2,139.03c.42-5.51.64-9.96.66-13.36h1.19c.29.01.67,0,1.15,0l-.17,2.64c.22-.37.4-.65.53-.85.13-.2.31-.41.53-.63.22-.22.48-.42.78-.61.3-.19.65-.35,1.06-.47.4-.13.82-.22,1.23-.28.42-.06.83-.09,1.25-.09.76,0,1.49.09,2.19.28.7.19,1.28.49,1.73.9.45.42.76.89.91,1.4.15.52.23,1.08.23,1.67,0,.12,0,.33-.01.66,0,.33-.03.75-.05,1.28l-.26,5.52c-.02.53-.03,1.17-.04,1.94-.4-.02-.77-.03-1.12-.03-.43,0-.84,0-1.21.03.09-1.06.16-2.09.2-3.07l.17-3.07c.05-1.05.08-1.85.08-2.39,0-.77-.13-1.39-.4-1.85-.26-.46-.69-.82-1.27-1.07-.58-.25-1.23-.38-1.95-.38-1.02,0-1.9.24-2.63.73-.67.45-1.19,1.09-1.56,1.91-.25.59-.44,1.46-.54,2.61-.13,1.38-.23,3.57-.28,6.58-.49-.02-.87-.03-1.14-.03s-.68,0-1.23.03Z"/>
      <path class="cls-1" d="M339.51,138.56c-.04-.83-.09-1.56-.17-2.18.93.44,1.77.75,2.51.93.74.18,1.46.27,2.14.27s1.27-.11,1.84-.34c.57-.22.99-.54,1.28-.95.29-.41.43-.88.43-1.4,0-.31-.05-.6-.14-.86-.1-.27-.25-.54-.47-.82-.21-.28-.59-.65-1.12-1.12-.53-.47-1.29-1.12-2.26-1.94l-.98-.83c-.37-.32-.7-.63-1-.94-.3-.31-.55-.61-.75-.9-.2-.29-.36-.54-.47-.78-.11-.23-.2-.49-.26-.78-.06-.29-.09-.58-.09-.88,0-.76.21-1.46.62-2.12s1.04-1.19,1.87-1.58c.83-.4,1.93-.59,3.29-.59.98,0,2.17.13,3.6.4.02.57.08,1.26.19,2.08-1.35-.47-2.57-.71-3.67-.71-.76,0-1.39.12-1.9.37s-.9.57-1.16.96c-.26.39-.39.79-.39,1.2,0,.25.03.49.11.72.07.23.17.46.32.67.2.31.45.62.75.93.3.31.71.69,1.24,1.14.13.11.63.52,1.51,1.24.87.72,1.51,1.28,1.91,1.67.4.4.72.76.96,1.1.24.34.42.7.55,1.09.13.39.2.82.2,1.27,0,.7-.15,1.35-.46,1.94-.3.59-.74,1.08-1.31,1.46-.57.38-1.2.65-1.89.8s-1.42.24-2.18.24c-.61,0-1.23-.05-1.88-.14-.65-.09-1.57-.3-2.76-.63Z"/>
      <path class="cls-1" d="M363.05,136.93c-.11.48-.21,1.1-.32,1.85-.84.21-1.58.35-2.2.43-.62.08-1.24.11-1.85.11-1.1,0-2.08-.13-2.96-.4-.88-.26-1.62-.72-2.25-1.38-.62-.65-1.07-1.4-1.34-2.25s-.41-1.74-.41-2.68c0-1.31.25-2.52.75-3.65.5-1.12,1.25-2,2.26-2.64,1.01-.64,2.28-.96,3.83-.96.8,0,1.56.12,2.29.35s1.34.59,1.82,1.06.86,1.06,1.12,1.76c.26.7.4,1.46.4,2.29,0,.32-.03.62-.08.92h-10.06c-.04.48-.05.85-.05,1.11,0,.92.19,1.77.58,2.55.39.78.96,1.37,1.71,1.77.76.4,1.63.6,2.61.6,1.13,0,2.51-.28,4.14-.84ZM354.17,130.66h7.86c0-.55-.04-.98-.11-1.29-.06-.31-.18-.63-.34-.96-.17-.33-.39-.62-.68-.86-.29-.24-.63-.43-1.03-.55-.4-.13-.83-.19-1.3-.19-.5,0-.98.07-1.43.21-.45.14-.85.33-1.2.58-.35.25-.64.53-.88.86-.24.33-.42.65-.54.96-.12.31-.24.72-.35,1.24Z"/>
      <path class="cls-1" d="M365.74,139.03c.32-5.07.47-9.12.47-12.14v-1.21c.44,0,.8.01,1.09.01.33,0,.71,0,1.12-.01l-.11,2.19c.33-.54.61-.96.86-1.23.25-.28.53-.5.85-.69.32-.18.67-.32,1.07-.42.4-.1.82-.15,1.25-.15.37,0,.73.04,1.09.13,0,.58.04,1.23.09,1.95-.54-.15-1.03-.22-1.46-.22-.52,0-.98.08-1.4.26-.41.17-.78.43-1.11.78-.33.35-.6.76-.81,1.25-.18.39-.31.89-.4,1.5-.09.62-.17,1.74-.22,3.36-.04,1.19-.05,2.44-.05,3.77v.88c-.47-.02-.86-.03-1.15-.03-.26,0-.66,0-1.2.03Z"/>
      <path class="cls-1" d="M378.11,139.03l-.45-1.33c-.15-.43-.5-1.41-1.06-2.94l-3.31-9.08c.54,0,.96.01,1.27.01.33,0,.73,0,1.19-.01l.28.92c.08.26.22.69.41,1.27l3.1,9.19,4.18-10.07.5-1.31c.52,0,.93.01,1.24.01s.72,0,1.24-.01l-1.71,3.68-3.44,7.67-.84,2c-.54-.02-.97-.03-1.28-.03s-.76,0-1.32.03Z"/>
      <path class="cls-1" d="M387.22,139.03l.23-3.32.25-5.67.11-4.36h1.21s1.19,0,1.19,0c-.1,1.37-.19,2.81-.27,4.3-.08,1.5-.15,3.14-.2,4.91-.05,1.78-.07,3.16-.07,4.14-.55-.02-.95-.03-1.19-.03-.22,0-.64,0-1.27.03ZM387.83,122.8c.03-.83.04-1.45.04-1.87.48.02.91.03,1.28.03.47,0,.89,0,1.27-.03-.02.27-.04.9-.08,1.87-.47,0-.88-.01-1.23-.01s-.77,0-1.28.01Z"/>
      <path class="cls-1" d="M402.38,137.03c-.02.14-.06.4-.14.78-.07.38-.14.76-.19,1.13-.64.15-1.26.25-1.85.3-.59.05-1.11.08-1.56.08-.95,0-1.83-.13-2.63-.38-.8-.25-1.51-.67-2.1-1.26-.6-.58-1.04-1.31-1.32-2.17-.28-.87-.42-1.78-.42-2.74,0-1.29.23-2.52.69-3.68s1.18-2.07,2.16-2.73c.98-.66,2.33-.99,4.02-.99,1.25,0,2.46.17,3.65.5.05.75.1,1.36.14,1.85-.83-.26-1.52-.44-2.04-.53-.53-.09-1.02-.14-1.46-.14-.77,0-1.47.14-2.08.42-.61.28-1.13.68-1.56,1.2s-.74,1.13-.93,1.85c-.19.71-.28,1.44-.28,2.17,0,.99.15,1.86.46,2.61.31.75.85,1.32,1.61,1.73.77.41,1.63.61,2.59.61s2.01-.21,3.24-.62Z"/>
      <path class="cls-1" d="M415.56,136.93c-.11.48-.21,1.1-.32,1.85-.84.21-1.58.35-2.2.43-.62.08-1.24.11-1.85.11-1.1,0-2.08-.13-2.96-.4-.88-.26-1.62-.72-2.25-1.38-.62-.65-1.07-1.4-1.34-2.25s-.41-1.74-.41-2.68c0-1.31.25-2.52.75-3.65.5-1.12,1.25-2,2.26-2.64,1.01-.64,2.28-.96,3.83-.96.8,0,1.56.12,2.29.35s1.34.59,1.82,1.06.86,1.06,1.12,1.76c.26.7.4,1.46.4,2.29,0,.32-.03.62-.08.92h-10.06c-.04.48-.05.85-.05,1.11,0,.92.19,1.77.58,2.55.39.78.96,1.37,1.71,1.77.76.4,1.63.6,2.61.6,1.13,0,2.51-.28,4.14-.84ZM406.68,130.66h7.86c0-.55-.04-.98-.11-1.29-.06-.31-.18-.63-.34-.96-.17-.33-.39-.62-.68-.86-.29-.24-.63-.43-1.03-.55-.4-.13-.83-.19-1.3-.19-.5,0-.98.07-1.43.21-.45.14-.85.33-1.2.58-.35.25-.64.53-.88.86-.24.33-.42.65-.54.96-.12.31-.24.72-.35,1.24Z"/>
      <path class="cls-1" d="M417.67,138.78l-.08-.97c0-.11-.04-.44-.11-1.01,1.35.59,2.6.88,3.74.88.6,0,1.1-.08,1.52-.24.41-.16.72-.39.93-.7.21-.31.31-.63.31-.97,0-.18-.03-.37-.09-.55-.06-.18-.14-.36-.26-.53s-.28-.36-.51-.56c-.22-.21-.69-.59-1.4-1.17-.71-.57-1.24-1.02-1.61-1.34-.37-.32-.68-.65-.94-.99-.26-.34-.45-.68-.57-1.02s-.18-.69-.18-1.04c0-.56.18-1.11.53-1.63.36-.53.87-.92,1.54-1.18.67-.26,1.46-.39,2.37-.39,1.01,0,2.12.12,3.33.36.04.69.08,1.31.13,1.89-.98-.4-1.96-.61-2.91-.61-.52,0-1,.07-1.44.2-.44.14-.77.34-.98.61-.21.27-.31.57-.31.9,0,.21.04.41.11.61s.2.4.38.63c.18.22.4.45.65.67s.76.63,1.52,1.24c.76.61,1.28,1.05,1.56,1.34s.52.59.72.9.35.61.44.92c.09.3.14.61.14.93,0,.62-.18,1.19-.55,1.71-.36.53-.91.94-1.63,1.23-.72.29-1.53.43-2.43.43-.38,0-.82-.02-1.33-.07-.51-.05-.94-.11-1.3-.17-.36-.07-.8-.17-1.33-.3Z"/>
    </g>
  </g>
  <image width="400" height="400" transform="scale(.5)" xlink:href="icon_working.png"/>
</svg>